<?xml version="1.0" standalone="no"?>
<!DOCTYPE svg PUBLIC "-//W3C//DTD SVG 20010904//EN"
 "http://www.w3.org/TR/2001/REC-SVG-20010904/DTD/svg10.dtd">
<svg version="1.0" xmlns="http://www.w3.org/2000/svg"
 width="1152.000000pt" height="2048.000000pt" viewBox="0 0 1152.000000 2048.000000"
 preserveAspectRatio="xMidYMid meet">

<g transform="translate(0.000000,2048.000000) scale(0.100000,-0.100000)"
fill="#000000" stroke="none">
<path d="M0 19920 c0 -308 4 -560 9 -560 10 0 21 73 21 144 0 28 5 78 10 111
6 39 6 61 0 63 -6 2 -6 10 -1 20 4 9 11 57 15 106 4 49 14 109 22 133 9 25 13
52 10 60 -4 9 -2 42 4 74 6 32 12 73 14 91 14 128 21 160 45 204 15 27 43 59
62 72 19 13 36 27 37 33 2 5 -48 9 -122 9 l-126 0 0 -560z"/>
<path d="M312 20455 c0 -16 2 -22 5 -12 2 9 2 23 0 30 -3 6 -5 -1 -5 -18z"/>
<path d="M6725 20470 c-8 -13 5 -13 25 0 13 8 13 10 -2 10 -9 0 -20 -4 -23
-10z"/>
<path d="M6813 20463 c-3 -7 -8 -11 -13 -8 -4 2 -24 -4 -44 -15 -29 -14 -44
-16 -63 -9 -13 5 -39 8 -56 8 -24 -1 -26 -3 -9 -6 12 -2 20 -8 17 -12 -2 -5
-20 -3 -39 3 -29 9 -32 12 -18 22 12 9 3 12 -45 18 -88 10 -126 -10 -60 -31
17 -6 115 -41 217 -78 102 -36 245 -86 319 -111 l134 -44 76 15 c41 9 77 18
80 20 2 3 5 21 7 41 2 20 11 47 19 61 21 32 13 39 -20 17 -20 -13 -23 -19 -13
-26 10 -8 10 -9 -2 -5 -8 2 -23 -7 -34 -21 -11 -14 -26 -22 -36 -19 -13 3 -16
0 -13 -13 3 -12 -5 -21 -27 -30 -17 -7 -33 -10 -37 -6 -3 3 1 6 10 6 16 0 25
29 10 31 -5 0 -38 8 -75 18 -72 19 -80 39 -17 45 47 4 67 14 122 59 49 40 57
58 17 37 -18 -10 -24 -9 -31 1 -4 7 -11 10 -15 7 -4 -4 -15 -3 -25 2 -10 6
-44 14 -76 20 -32 5 -71 12 -87 16 -19 5 -31 2 -38 -7 -7 -11 -11 -11 -15 -1
-7 17 -23 15 -23 -3 0 -8 -4 -15 -10 -15 -5 0 -10 7 -10 15 0 20 -70 17 -77
-2z m66 -35 c-2 -13 0 -29 5 -36 12 -20 1 -25 -22 -11 -20 12 -19 30 1 57 14
18 19 15 16 -10z m261 -13 c0 -2 -11 -12 -24 -21 -19 -12 -29 -13 -43 -4 -16
10 -16 10 4 5 13 -4 27 0 35 9 13 15 28 21 28 11z m-383 -28 c23 -22 5 -22
-48 3 l-44 19 37 -2 c21 -2 46 -10 55 -20z m423 19 c0 -2 -8 -10 -17 -17 -16
-13 -17 -12 -4 4 13 16 21 21 21 13z m-360 -31 c0 -12 -19 -12 -23 0 -4 9 -1
12 9 8 7 -3 14 -7 14 -8z m140 5 c0 -5 -2 -10 -4 -10 -3 0 -8 5 -11 10 -3 6
-1 10 4 10 6 0 11 -4 11 -10z m180 -4 c0 -2 -8 -10 -17 -17 -16 -13 -17 -12
-4 4 13 16 21 21 21 13z m-70 -10 c0 -11 -19 -15 -25 -6 -3 5 1 10 9 10 9 0
16 -2 16 -4z m-205 -16 c3 -5 -3 -10 -14 -10 -12 0 -21 5 -21 10 0 6 6 10 14
10 8 0 18 -4 21 -10z m145 -59 c0 -5 -9 -7 -20 -4 -11 3 -20 7 -20 9 0 2 9 4
20 4 11 0 20 -4 20 -9z"/>
<path d="M9540 20400 c0 -64 3 -80 15 -80 11 0 15 -11 15 -40 0 -29 4 -40 15
-40 13 0 15 -20 15 -120 l0 -120 -40 0 -40 0 0 -80 c0 -73 -2 -80 -20 -80 -19
0 -20 -7 -20 -160 0 -153 -1 -160 -20 -160 -17 0 -20 -7 -20 -40 l0 -40 40 0
40 0 0 -280 c0 -273 0 -280 -20 -280 -17 0 -20 -7 -20 -40 0 -33 3 -40 20 -40
19 0 20 -7 20 -160 0 -100 4 -160 10 -160 6 0 10 18 10 40 0 29 4 40 15 40 11
0 15 -11 15 -40 0 -36 3 -40 25 -40 23 0 25 -4 25 -41 0 -24 -4 -38 -10 -34
-5 3 -10 2 -10 -3 0 -6 -9 -8 -20 -5 -18 5 -20 0 -20 -36 0 -34 -3 -41 -20
-41 -17 0 -20 -7 -20 -40 l0 -40 43 -1 c23 -1 45 -1 50 0 4 0 7 -35 7 -79 0
-47 -4 -80 -10 -80 -5 0 -10 18 -10 40 0 29 -4 40 -15 40 -12 0 -15 -16 -15
-80 0 -64 3 -80 15 -80 11 0 15 -11 15 -40 0 -22 5 -40 10 -40 6 0 10 -18 10
-40 0 -22 -4 -40 -10 -40 -5 0 -10 18 -10 40 l0 40 -40 0 -40 0 0 -80 c0 -79
0 -80 25 -80 25 0 25 -1 25 -80 0 -79 0 -80 -25 -80 -22 0 -25 -4 -25 -40 0
-33 -3 -40 -20 -40 -17 0 -20 -7 -20 -40 0 -33 3 -40 20 -40 18 0 20 -7 20
-80 l0 -80 40 0 40 0 0 -40 c0 -22 5 -40 10 -40 6 0 10 -18 10 -40 0 -22 -4
-40 -10 -40 -5 0 -10 -18 -10 -40 0 -29 -4 -40 -15 -40 -11 0 -15 -11 -15 -40
0 -36 -2 -40 -25 -40 l-25 0 0 -240 c0 -153 -4 -240 -10 -240 -6 0 -10 33 -10
80 l0 80 -50 0 -50 0 0 -40 c0 -33 3 -40 20 -40 17 0 20 -7 20 -39 0 -22 5
-42 13 -44 10 -4 10 -6 0 -6 -10 -1 -13 -47 -13 -196 l0 -195 40 0 40 0 0 -40
c0 -33 -3 -40 -20 -40 -17 0 -20 -7 -20 -40 0 -33 3 -40 20 -40 17 0 20 -7 20
-40 0 -33 -3 -40 -20 -40 -18 0 -20 -7 -20 -80 0 -73 2 -80 20 -80 17 0 20 -7
20 -40 0 -33 -3 -40 -20 -40 -17 0 -20 -7 -20 -40 0 -33 3 -40 20 -40 17 0 20
-7 20 -40 0 -33 -3 -40 -20 -40 -17 0 -20 -7 -20 -40 l0 -40 60 0 c47 0 60 -3
60 -15 0 -11 11 -15 40 -15 29 0 40 4 40 15 0 8 5 15 10 15 6 0 10 -33 10 -80
l0 -80 -29 0 c-16 0 -31 -5 -33 -11 -2 -6 -16 -11 -31 -11 -27 0 -27 -1 -11
-19 22 -25 44 -24 44 1 0 13 7 20 20 20 11 0 20 -4 20 -10 0 -5 10 -10 23 -10
30 0 34 -36 6 -45 -11 -4 -23 -4 -26 -1 -4 3 -1 6 5 6 7 0 12 7 12 16 0 14 -2
14 -16 3 -9 -7 -23 -14 -31 -15 -26 -4 -27 -14 -2 -15 22 0 23 -1 4 -9 -14 -6
-2 -8 35 -5 45 4 51 2 33 -7 -20 -10 -21 -12 -7 -23 18 -13 28 -75 12 -75 -6
0 -7 -11 -4 -25 5 -18 2 -25 -9 -25 -17 0 -18 18 -6 73 9 37 9 37 -24 37 -18
0 -68 7 -111 15 -44 8 -171 28 -284 45 -113 17 -293 44 -400 60 -415 62 -1258
190 -1315 200 -33 5 -208 33 -390 60 -291 45 -962 150 -1630 255 -121 20 -278
44 -350 56 -71 11 -184 29 -250 39 -66 11 -320 51 -565 90 -245 39 -546 86
-670 106 -220 35 -286 38 -329 14 -17 -9 -19 -34 -25 -392 -3 -211 -8 -471
-11 -578 -3 -107 -10 -519 -16 -915 -5 -396 -14 -953 -18 -1238 -9 -519 -8
-535 25 -614 13 -31 17 -33 65 -33 55 0 129 -18 129 -31 0 -21 112 -28 570
-33 272 -3 698 -8 945 -11 248 -3 698 -7 1002 -9 l551 -4 -13 37 c-7 20 -22
58 -34 84 -12 27 -21 58 -20 70 1 16 4 13 13 -13 16 -50 61 -131 86 -157 19
-21 29 -23 140 -23 110 0 121 -2 141 -22 12 -13 19 -17 15 -10 -4 7 -2 20 5
28 10 13 15 13 34 0 12 -8 26 -11 31 -6 12 11 76 16 92 6 15 -9 16 17 0 100
l-11 64 -65 0 -65 0 21 23 c25 26 31 57 9 38 -15 -12 -27 -5 -27 16 0 8 4 11
10 8 6 -4 7 1 3 11 -5 13 -2 15 18 9 23 -7 23 -6 5 7 -20 15 -32 68 -15 68 5
0 9 -4 9 -10 0 -5 7 -10 15 -10 19 0 19 13 -1 52 -9 16 -11 27 -4 23 7 -5 9 1
4 19 -4 16 -2 26 5 26 6 0 11 -5 11 -11 0 -5 5 -7 11 -3 7 4 9 0 5 -12 -3 -11
-2 -25 2 -31 4 -7 9 16 10 51 2 49 -1 65 -13 70 -19 7 -20 26 0 26 8 0 15 9
15 21 0 11 -4 17 -10 14 -5 -3 -10 -2 -10 4 0 5 8 12 18 14 13 4 11 5 -5 6
-26 1 -30 23 -9 40 8 7 12 21 9 31 -3 11 0 27 7 35 6 8 9 23 5 35 -3 11 -2 20
3 20 5 0 12 18 16 40 5 34 10 40 31 40 16 0 28 7 31 18 3 9 10 25 16 36 9 16
7 18 -14 14 -12 -3 -31 -9 -41 -13 -14 -6 -20 -2 -24 14 -3 11 -10 21 -17 21
-6 0 -4 5 4 10 13 8 12 11 -5 24 -19 14 -17 15 30 15 51 -1 171 -15 147 -18
-7 0 -10 -5 -7 -11 3 -6 2 -10 -3 -10 -8 0 -23 -54 -27 -100 -1 -8 -4 -23 -8
-32 -4 -10 -9 -25 -12 -33 -2 -8 -16 -15 -30 -15 -14 0 -25 -4 -25 -10 0 -5 5
-10 10 -10 6 0 10 -9 10 -20 0 -11 -4 -20 -10 -20 -5 0 -10 -4 -10 -10 0 -5
13 -10 29 -10 17 0 33 -5 37 -12 5 -8 -3 -9 -30 -5 -21 3 -34 2 -31 -3 3 -6 0
-7 -8 -4 -19 7 -33 -14 -18 -29 8 -8 14 -8 23 1 7 7 23 11 38 11 24 -1 24 -2
-4 -8 -16 -3 -30 -13 -32 -23 -1 -10 3 -15 11 -11 8 2 21 0 31 -5 13 -7 11
-10 -15 -15 -21 -4 -31 -12 -31 -25 0 -14 7 -17 40 -14 l40 4 0 -78 -1 -79
-25 50 c-14 28 -34 59 -45 70 -19 18 -18 14 5 -49 26 -68 33 -116 18 -116 -4
0 -6 -16 -4 -35 2 -19 8 -35 12 -35 5 0 6 9 3 19 -3 11 0 28 6 38 9 16 10 16
11 -7 0 -14 3 -53 6 -88 3 -42 1 -61 -6 -57 -16 10 -24 -24 -12 -48 6 -12 13
-43 17 -68 4 -34 11 -48 24 -52 14 -3 19 -19 25 -78 3 -41 10 -110 15 -154 5
-44 6 -84 3 -90 -9 -15 -20 34 -21 96 -1 38 -6 59 -15 62 -8 3 -16 29 -20 64
-3 32 -11 72 -16 88 -16 52 -1 -102 17 -174 15 -56 15 -76 4 -170 -25 -197
-29 -266 -30 -445 -1 -99 -4 -176 -8 -172 -5 4 -24 56 -44 114 -34 100 -84
222 -115 284 -8 14 -14 46 -15 70 -1 23 -5 54 -10 68 -6 17 -7 6 -3 -35 4 -55
3 -58 -11 -41 -8 11 -15 23 -15 27 0 4 -25 46 -55 94 -30 49 -55 84 -55 79 0
-5 16 -36 36 -69 20 -33 59 -104 87 -158 49 -97 50 -100 48 -185 0 -48 6 -141
14 -207 8 -66 17 -158 19 -205 3 -47 8 -120 12 -162 4 -53 3 -78 -4 -78 -14 0
-132 -109 -132 -123 0 -5 27 15 59 46 33 32 66 57 74 57 11 0 16 -19 20 -72 3
-40 15 -165 26 -278 21 -209 27 -366 13 -386 -4 -6 -14 -14 -22 -17 -13 -5
-13 -6 0 -6 9 -1 16 -10 16 -21 0 -17 -7 -20 -40 -20 -22 0 -47 7 -57 16 -17
15 -19 15 -34 0 -9 -9 -12 -16 -6 -16 20 0 11 -25 -19 -54 -30 -29 -34 -50 -5
-26 13 10 19 10 33 -4 10 -9 23 -16 28 -16 5 1 -2 10 -15 20 -19 17 -21 23
-11 35 15 19 47 21 33 3 -6 -9 -5 -21 3 -37 12 -23 12 -23 19 -2 3 12 15 21
26 21 24 0 24 -9 2 -26 -16 -12 -15 -13 12 -8 l30 6 -3 -89 c-3 -96 -7 -117
-21 -109 -5 3 -14 -1 -21 -10 -10 -11 -15 -12 -21 -3 -6 10 -11 10 -24 -1 -15
-13 -15 -15 7 -23 22 -9 22 -9 3 -17 -12 -5 -14 -9 -6 -9 8 -1 23 -9 34 -18
15 -13 21 -15 24 -5 6 16 23 5 23 -15 0 -9 -6 -13 -15 -9 -18 7 -18 7 -4 -33
10 -27 9 -34 -6 -45 -23 -17 -13 -32 25 -39 32 -7 68 2 52 12 -9 6 -3 41 39
256 11 55 24 141 29 190 11 96 37 233 39 201 2 -41 10 -20 61 182 9 38 17 48
27 39 3 -4 -3 -49 -15 -101 -12 -52 -22 -104 -22 -115 0 -11 -6 -24 -14 -28
-24 -13 -68 -216 -46 -210 14 4 13 -5 -8 -103 -12 -52 -30 -140 -41 -195 -11
-55 -23 -111 -27 -124 l-7 -24 89 6 c87 5 87 5 24 -5 -91 -14 -90 -13 -90 -53
0 -19 -15 -126 -34 -238 -19 -111 -37 -229 -41 -262 -4 -33 -13 -91 -21 -128
-8 -38 -21 -133 -30 -210 -8 -78 -19 -146 -25 -151 -5 -6 -9 -25 -9 -42 0 -18
-4 -44 -10 -58 -5 -14 -10 -53 -11 -86 -2 -48 -5 -60 -16 -55 -8 3 -20 5 -27
5 -7 0 -25 11 -40 25 -20 19 -26 33 -26 68 0 58 -19 112 -33 98 -6 -6 -19 -11
-29 -11 -10 0 -18 -6 -18 -14 0 -26 -23 -31 -470 -96 -80 -12 -239 -37 -355
-56 -115 -18 -251 -39 -302 -45 -51 -7 -90 -15 -88 -18 1 -3 -11 -7 -28 -7
-18 -1 -65 -7 -104 -13 -40 -6 -103 -15 -140 -20 -105 -14 -262 -39 -323 -50
-69 -13 -296 -50 -375 -61 -33 -5 -127 -19 -210 -33 -82 -14 -188 -30 -235
-36 -47 -7 -105 -16 -130 -21 -25 -5 -82 -15 -127 -21 -46 -6 -80 -15 -77 -20
3 -5 11 -9 19 -9 7 0 16 -6 19 -12 3 -7 4 -6 3 4 -2 17 0 18 31 18 15 0 15 -2
2 -11 -12 -9 -11 -10 8 -6 12 3 20 1 16 -4 -3 -5 -12 -9 -20 -9 -8 0 -14 -4
-14 -10 0 -5 8 -7 18 -4 14 5 14 4 2 -4 -8 -6 -17 -10 -20 -8 -35 15 -80 42
-80 48 0 5 -8 8 -19 8 -24 0 -31 -26 -31 -114 0 -61 -2 -67 -15 -56 -24 20
-34 2 -44 -77 -5 -40 -12 -76 -15 -81 -9 -14 -16 -101 -19 -224 -1 -58 -5
-101 -9 -95 -5 8 -8 6 -8 -5 0 -10 5 -18 11 -18 7 0 9 -10 4 -27 -4 -16 -9
-143 -10 -284 -3 -260 -20 -756 -34 -1015 -9 -163 -21 -193 -78 -194 -33 0
-33 0 -33 -50 0 -27 -4 -50 -10 -50 -5 0 -10 5 -10 10 0 17 -17 11 -49 -19
-22 -21 -31 -38 -31 -61 0 -18 -9 -45 -20 -61 -14 -19 -20 -41 -19 -68 2 -23
-4 -49 -14 -65 -9 -14 -17 -44 -17 -67 0 -28 -6 -46 -17 -54 -15 -11 -17 -30
-17 -124 1 -88 -2 -111 -12 -111 -10 0 -14 -15 -14 -55 0 -35 -5 -57 -12 -60
-19 -8 -20 -445 -1 -445 10 0 13 -20 13 -79 0 -44 -4 -83 -10 -86 -24 -15 -38
-77 -44 -190 -3 -68 -10 -121 -16 -123 -6 -2 -10 -42 -10 -98 l0 -93 -30 -16
c-16 -9 -30 -19 -30 -24 0 -4 -11 -14 -25 -21 -14 -7 -25 -19 -25 -26 0 -9
-18 -14 -52 -16 -51 -3 -76 -22 -41 -31 10 -3 4 -5 -14 -6 -29 -1 -105 -23
-216 -64 -21 -7 -45 -24 -53 -36 -9 -12 -28 -27 -43 -33 -25 -11 -25 -12 -3
-15 21 -4 22 -9 22 -84 l0 -79 -40 0 c-29 0 -40 -4 -40 -15 0 -11 11 -15 40
-15 29 0 40 4 40 15 0 11 11 15 40 15 l40 0 0 40 0 40 40 0 40 0 0 40 c0 22 5
40 11 40 7 0 10 -30 8 -87 -1 -69 2 -97 17 -129 31 -66 48 -78 89 -64 35 11
46 34 23 43 -7 3 3 3 23 0 21 -3 39 -1 43 6 10 15 26 14 26 -3 0 -11 19 -13
92 -10 51 2 96 8 102 14 5 5 25 10 43 10 27 0 102 18 193 46 8 3 25 -4 37 -15
29 -28 53 -27 54 2 1 13 4 8 8 -13 3 -19 4 -51 3 -70 l-4 -36 -181 -63 c-100
-34 -272 -93 -382 -131 -110 -38 -285 -98 -390 -135 -104 -37 -208 -73 -230
-80 -22 -7 -260 -88 -530 -180 -269 -91 -584 -198 -700 -236 -115 -38 -219
-74 -230 -79 -11 -5 -132 -45 -269 -90 -137 -44 -256 -86 -264 -92 -11 -10
-13 -62 -8 -317 3 -168 8 -342 10 -386 3 -45 0 -98 -6 -121 l-11 -41 -47 91
c-26 50 -92 179 -148 287 -70 135 -97 196 -87 196 8 0 15 -7 15 -16 0 -9 5
-23 11 -31 8 -12 9 -9 4 10 l-6 25 15 -25 c18 -30 20 -44 4 -34 -7 4 -8 3 -4
-4 4 -6 13 -9 21 -5 17 6 20 23 4 23 -6 0 -8 8 -4 19 4 13 0 23 -12 30 -17 10
-17 10 -1 11 15 0 18 10 18 68 2 150 -11 410 -24 486 -6 40 10 71 28 54 8 -7
11 -17 8 -22 -3 -5 1 -6 8 -1 10 6 12 4 7 -9 -6 -14 -3 -17 8 -12 10 3 13 2 9
-5 -3 -6 3 -20 14 -32 10 -12 32 -46 48 -74 16 -29 33 -53 37 -53 5 0 0 12
-10 27 -11 16 -27 47 -38 71 -10 23 -21 42 -24 42 -4 0 -12 12 -18 28 -6 15
-29 59 -51 97 -46 83 -150 272 -204 370 l-37 70 -1 -1392 0 -1393 5760 0 5760
0 -1 1908 c-1 1308 -4 1899 -11 1881 -13 -31 -64 -57 -81 -40 -8 8 -5 11 11
11 26 0 28 15 7 36 -13 14 -15 13 -15 -5 0 -18 -4 -20 -26 -15 -17 4 -29 2
-34 -7 -5 -7 -21 -13 -36 -14 -38 0 -41 -22 -4 -27 22 -3 30 -1 30 10 0 12 3
12 15 2 8 -7 15 -23 15 -36 0 -14 6 -24 14 -24 8 0 29 -17 47 -37 l32 -37 -24
-6 c-19 -5 -23 -12 -21 -32 2 -23 -1 -26 -38 -30 -36 -3 -40 -1 -40 19 0 13
-5 23 -11 23 -5 0 -9 -9 -7 -20 2 -10 -1 -18 -7 -17 -5 1 -10 9 -10 17 0 8 -9
15 -20 15 -14 0 -21 -8 -25 -30 -5 -28 -7 -29 -54 -26 -37 2 -47 -1 -43 -11 2
-7 10 -12 16 -11 6 2 11 -9 10 -25 -1 -17 -3 -20 -6 -9 -5 20 -23 13 -23 -9 0
-8 11 -14 28 -15 15 -1 20 -3 10 -6 -9 -2 -19 -11 -22 -20 -5 -13 2 -15 47
-11 49 4 54 2 65 -21 10 -22 10 -28 -3 -37 -21 -16 -82 -1 -100 23 -11 14 -16
16 -26 5 -11 -10 -10 -12 4 -12 12 0 17 -8 17 -30 0 -27 -3 -30 -32 -31 -56
-1 -72 -7 -93 -33 -15 -18 -26 -24 -42 -20 -13 4 -20 11 -16 20 4 10 -3 14
-23 14 -27 -1 -28 -1 -10 -15 15 -11 16 -17 7 -28 -9 -12 -5 -16 20 -21 39 -7
36 -11 -13 -20 -28 -5 -37 -4 -34 6 1 7 1 10 -1 6 -3 -5 -18 -8 -34 -8 -16 0
-29 -4 -29 -10 0 -5 6 -10 14 -10 7 0 19 -6 26 -14 6 -8 18 -12 26 -9 8 3 14
-1 14 -11 0 -9 5 -16 12 -16 9 0 9 -3 1 -11 -6 -6 -28 -12 -49 -12 -57 -3 -57
-27 1 -27 55 0 59 -24 4 -26 -49 -1 -57 -5 -29 -14 24 -8 24 -8 -6 -9 -22 -1
-34 -8 -44 -25 -7 -13 -22 -27 -34 -31 -18 -6 -19 -8 -4 -12 10 -2 25 3 34 11
21 21 21 21 16 -14 -3 -19 0 -30 7 -30 7 0 9 -5 6 -10 -4 -6 -14 -1 -24 12
l-19 22 -21 -44 c-11 -24 -22 -60 -23 -79 l-1 -36 -4 33 c-2 17 -8 32 -13 32
-4 0 -6 -8 -3 -18 3 -14 -4 -21 -31 -29 -32 -10 -36 -9 -36 6 0 10 11 24 24
31 25 13 41 38 31 49 -3 3 -10 -1 -15 -8 -4 -8 -15 -11 -23 -8 -11 4 -17 -1
-19 -16 -3 -19 -5 -17 -21 15 -13 28 -22 35 -37 31 -11 -3 -20 -10 -20 -15 0
-5 -4 -6 -10 -3 -5 3 -10 17 -10 31 0 19 -5 25 -17 22 -11 -2 -17 -12 -16 -23
4 -32 -5 -49 -20 -37 -13 10 -52 10 -63 -1 -4 -4 0 -7 9 -7 9 0 17 -7 17 -15
0 -30 -51 -8 -62 27 -3 7 -11 9 -24 3 -18 -7 -17 -8 6 -16 21 -7 19 -8 -12 -6
-21 2 -38 0 -38 -4 0 -4 -17 10 -37 32 -76 81 -84 89 -93 89 -6 0 -10 -7 -10
-15 0 -8 -4 -15 -10 -15 -5 0 -10 7 -10 16 0 8 -13 20 -29 25 -41 14 -49 39
-13 40 15 0 21 3 15 6 -7 2 -13 11 -13 19 0 8 -4 14 -9 14 -5 0 -11 9 -14 20
-4 14 0 20 11 20 14 0 14 2 3 9 -8 5 -24 8 -37 6 -14 -1 -34 7 -49 20 -15 15
-26 19 -29 12 -3 -8 -5 -8 -5 -1 -1 6 8 21 19 34 18 20 21 21 35 6 20 -20 17
-20 38 5 18 20 18 21 -3 14 -17 -5 -23 -1 -31 24 -11 30 -34 42 -41 20 -2 -7
-13 -5 -31 4 -17 9 -24 18 -18 22 16 9 13 25 -4 25 -11 0 -15 12 -15 45 0 34
5 47 20 55 11 6 18 15 15 21 -4 5 1 12 9 15 9 4 16 18 16 34 0 16 5 32 10 35
5 3 10 21 10 39 0 19 6 39 14 45 9 7 13 25 11 47 -3 25 2 41 16 55 24 24 24
29 -1 29 -21 0 -28 16 -9 22 12 4 28 74 29 128 0 27 9 45 34 72 19 20 42 53
51 75 9 21 26 58 37 83 18 37 23 80 33 247 8 127 17 208 25 218 7 8 9 26 5 44
-3 16 -1 39 5 50 7 15 8 27 0 40 -7 14 -7 27 1 45 7 14 9 32 5 41 -5 14 -9 13
-34 -5 -39 -29 -208 -35 -235 -8 -21 21 -22 61 -1 79 14 12 14 14 -2 26 -22
16 -11 28 36 40 l35 9 14 142 c7 79 12 145 9 147 -2 3 -218 -66 -478 -153
-435 -144 -475 -159 -482 -182 -11 -37 -2 119 26 445 14 160 35 398 46 530 33
400 118 1385 141 1635 12 129 26 244 32 255 7 11 12 74 13 145 1 69 5 155 9
193 6 54 5 67 -6 67 -13 0 -374 129 -559 200 -41 16 -150 57 -242 90 l-167 62
-143 -22 c-79 -12 -197 -30 -263 -41 -66 -10 -199 -30 -295 -44 -96 -14 -224
-34 -284 -45 -60 -11 -114 -20 -120 -20 -8 0 -11 68 -12 213 0 116 -7 360 -14
541 -13 307 -13 329 3 338 10 5 15 14 11 19 -4 6 -11 6 -20 -1 -11 -10 -13 -6
-11 19 1 21 6 30 15 26 8 -3 18 -5 23 -5 5 0 9 -6 9 -14 0 -18 30 -30 44 -16
7 7 7 10 -1 10 -6 0 -13 7 -16 14 -4 11 -1 13 11 10 10 -3 6 4 -10 18 -21 18
-25 27 -17 38 8 12 12 12 16 2 3 -7 31 -26 63 -42 33 -16 63 -37 68 -46 5 -10
18 -14 33 -12 l24 5 -25 11 -25 12 28 -3 c15 -3 30 0 33 4 3 5 -7 9 -23 9 -60
1 -164 53 -145 72 8 8 16 6 27 -6 25 -25 37 -19 19 9 -12 19 -22 24 -37 19
-14 -4 -18 -2 -15 7 3 8 13 14 24 15 10 1 36 9 56 18 21 9 42 16 47 16 5 0 7
10 4 21 -4 15 0 27 12 35 15 11 15 14 4 14 -8 0 -24 -7 -35 -15 -10 -8 -29
-15 -41 -15 -13 0 -23 -5 -23 -11 0 -6 -9 -8 -21 -4 -16 5 -20 3 -18 -12 4
-24 -8 -43 -25 -37 -7 3 -19 -2 -26 -11 -11 -13 -10 -15 6 -10 13 4 11 2 -4
-6 -29 -16 -37 -7 -21 23 7 12 14 34 15 46 4 35 33 74 50 68 8 -3 33 0 54 8
44 15 48 12 23 -18 -18 -20 -18 -20 9 -3 15 9 43 17 63 17 46 0 105 -25 105
-44 0 -28 18 -17 25 14 5 23 12 30 31 30 13 0 24 5 24 11 0 7 -8 9 -22 4 -42
-13 -88 -17 -105 -10 -10 5 -24 7 -30 6 -29 -4 -10 18 23 29 36 12 92 10 129
-5 11 -4 5 3 -12 17 -32 25 -33 25 -10 36 12 6 29 13 37 15 12 4 12 6 -3 12
-11 5 -24 2 -35 -8 -22 -19 -67 -33 -58 -18 12 18 15 134 5 154 -12 21 4 23
21 2 7 -8 24 -15 39 -14 26 0 26 0 3 10 -18 7 -22 14 -17 29 5 17 2 20 -27 21
-21 1 -26 3 -13 6 29 7 43 23 20 23 -17 0 -17 1 1 21 l19 21 -37 -18 c-20 -9
-35 -20 -33 -24 2 -4 -7 -5 -20 -2 -14 2 -25 6 -25 8 0 3 11 22 25 44 14 22
25 51 25 65 0 14 5 25 10 25 6 0 10 -9 10 -21 0 -12 4 -17 11 -13 6 3 8 18 5
33 -6 25 -6 25 9 7 8 -11 15 -25 16 -30 1 -6 5 0 9 14 l8 25 7 -23 c5 -16 13
-21 25 -17 9 3 23 -1 30 -10 7 -8 20 -15 28 -15 13 0 13 2 -3 13 -10 8 -15 19
-12 24 4 6 -7 13 -26 17 -29 6 -30 8 -13 18 14 8 21 7 27 -3 7 -11 9 -10 9 4
0 11 6 17 13 15 6 -3 12 -11 12 -19 0 -8 7 -14 15 -14 8 0 14 8 14 18 -1 9 3
17 10 18 6 0 2 4 -9 9 -32 14 -75 11 -81 -5 -8 -19 -64 -20 -89 -1 -39 28 187
44 337 23 22 -3 44 0 54 8 17 12 16 13 -5 20 -21 6 -22 7 -4 21 16 14 15 14
-17 8 -19 -3 -39 -10 -45 -14 -13 -10 -145 -17 -139 -8 9 14 82 28 113 22 31
-7 38 0 22 24 -6 10 -13 11 -27 4 -60 -32 -316 -93 -386 -92 -26 0 17 20 45
20 15 0 27 5 27 10 0 6 -9 10 -20 10 -24 0 -25 4 -4 36 9 13 13 28 9 32 -4 4
-10 1 -12 -5 -3 -7 -11 -13 -18 -13 -7 0 -16 -10 -19 -22 l-7 -23 -9 23 c-10
23 -7 37 16 87 7 17 20 47 28 68 21 52 46 50 47 -5 0 -36 2 -39 9 -20 5 12 14
22 20 22 17 0 4 42 -19 61 -21 17 -21 19 -6 49 19 38 33 44 68 31 22 -8 25 -8
20 5 -5 13 1 14 33 9 38 -6 39 -6 14 9 -16 10 -19 15 -10 16 12 0 13 2 1 9
-17 11 -51 3 -74 -17 -33 -29 -26 -6 11 36 37 41 37 41 67 26 26 -14 31 -14
41 0 6 9 14 13 17 9 15 -14 6 8 -10 26 -27 32 -24 48 18 86 36 33 61 41 114
37 19 -2 19 -1 2 9 -11 6 -30 9 -43 6 -14 -2 -27 0 -30 4 -3 5 7 9 23 10 28 1
28 1 -4 10 -18 5 -33 16 -33 24 0 8 -7 15 -15 15 -10 0 -15 -10 -15 -29 0 -16
-7 -35 -17 -42 -9 -8 -25 -33 -35 -56 -10 -24 -24 -43 -30 -43 -5 0 -8 6 -5
14 3 8 -1 17 -9 20 -29 11 -14 49 45 110 32 33 125 133 207 221 81 88 243 257
359 375 116 118 226 236 244 263 44 65 98 182 113 245 7 29 18 52 25 52 7 0
13 5 13 10 0 6 7 10 15 10 8 0 15 -4 15 -10 0 -5 7 -10 16 -10 8 0 12 5 9 10
-4 6 7 10 27 9 31 -1 32 -1 8 -9 -25 -8 -25 -8 4 -9 16 -1 26 -4 22 -8 -13
-13 90 -32 181 -33 100 0 134 6 111 22 -9 7 -5 8 14 5 33 -5 60 9 40 21 -8 6
20 12 74 16 48 3 93 11 99 16 7 6 11 22 9 37 -1 15 4 35 12 44 13 15 13 17 -6
22 -14 3 -20 13 -20 31 0 14 4 26 9 26 5 0 7 -10 4 -22 -4 -19 -3 -20 6 -8 6
8 11 38 11 67 0 38 3 51 13 48 9 -4 12 15 13 72 1 168 4 203 17 203 9 0 11 19
9 70 -2 39 1 76 6 83 6 7 13 47 17 90 4 42 11 77 16 77 4 0 10 12 12 28 l4 27
2 -27 1 -28 200 0 200 0 0 -40 c0 -36 3 -40 25 -40 23 0 25 -4 25 -40 0 -26 5
-40 13 -40 9 0 11 -12 9 -40 -3 -25 0 -40 7 -40 6 0 11 17 11 38 0 36 2 38 35
40 35 3 35 2 35 -38 l0 -40 40 0 40 0 0 40 c0 22 5 40 10 40 6 0 10 -18 10
-40 0 -22 -4 -40 -10 -40 -6 0 -10 -33 -10 -80 l0 -80 40 0 40 0 0 -80 c0 -79
0 -80 25 -80 25 0 25 -1 25 -80 0 -64 3 -80 15 -80 11 0 15 11 15 40 0 22 5
40 10 40 6 0 10 -18 10 -40 0 -29 4 -40 15 -40 12 0 15 -16 15 -80 0 -79 0
-80 25 -80 23 0 25 -4 25 -40 0 -29 4 -40 15 -40 13 0 15 -33 15 -241 l0 -240
22 3 c16 2 25 12 29 33 5 23 7 25 8 8 0 -13 6 -23 11 -23 6 0 10 -4 10 -10 0
-5 -9 -10 -19 -10 -15 0 -20 -9 -23 -47 -5 -57 -1 -69 8 -24 10 50 24 47 22
-6 -1 -26 1 -66 5 -88 l6 -40 -10 38 c-21 73 -45 30 -33 -61 4 -31 7 -64 5
-72 -6 -29 11 -1 19 32 8 33 8 33 9 -9 1 -24 -3 -43 -9 -43 -14 0 -13 -47 1
-52 7 -2 8 -14 1 -38 l-10 -35 -2 30 c-2 18 -6 6 -10 -30 -5 -34 -4 -61 1 -63
5 -2 9 -16 8 -30 l-1 -27 -7 25 c-4 13 -6 -20 -6 -75 1 -55 -4 -113 -10 -130
-7 -16 -13 -79 -14 -139 -1 -61 -4 -113 -6 -116 -2 -4 -5 -37 -6 -73 -1 -37
-6 -67 -12 -67 -6 0 -7 -19 -4 -47 6 -48 6 -48 -9 -18 -8 17 -12 21 -8 10 14
-47 16 -97 4 -164 -6 -39 -13 -102 -15 -139 -1 -37 -7 -101 -14 -142 -24 -165
-27 -210 -17 -214 8 -3 7 -7 -1 -13 -6 -4 -11 -30 -11 -56 1 -31 -4 -52 -13
-59 -11 -7 -11 -11 -1 -15 20 -8 15 -33 -5 -26 -15 5 -16 4 -7 -8 7 -8 9 -29
6 -49 -5 -33 -6 -34 -13 -10 -5 14 -5 0 -1 -30 3 -30 6 -73 4 -95 -1 -22 -2
-60 -2 -85 0 -28 -3 -40 -8 -32 -10 16 -22 -77 -22 -177 0 -36 -5 -93 -10
-126 -29 -183 -30 -200 -20 -203 5 -2 9 -29 9 -60 -1 -58 -3 -57 -14 12 -10
59 -15 37 -6 -27 4 -32 5 -60 1 -62 -4 -3 -5 -16 -2 -30 2 -15 0 -25 -7 -25
-6 0 -11 -5 -11 -11 0 -5 5 -7 10 -4 5 3 10 -3 10 -14 0 -11 -5 -23 -11 -27
-8 -4 -7 -9 2 -15 8 -5 10 -9 4 -9 -13 0 -14 -53 0 -62 7 -5 6 -8 -1 -8 -8 0
-12 -23 -11 -65 0 -36 -3 -68 -8 -73 -4 -4 -5 -1 0 7 5 9 4 12 -2 8 -5 -3 -10
-48 -11 -99 -1 -51 -5 -115 -8 -143 -7 -67 -11 -121 -13 -172 -1 -36 -4 -41
-18 -37 -12 4 -14 3 -6 -3 15 -11 17 -173 2 -173 -3 0 -7 -17 -8 -37 -1 -21
-3 -49 -4 -63 -2 -14 2 -28 8 -32 7 -5 7 -8 0 -8 -7 0 -9 -14 -7 -34 3 -28 1
-34 -13 -33 -10 1 -20 -4 -23 -12 -3 -10 2 -11 18 -6 l23 7 -21 -27 c-12 -15
-22 -34 -22 -42 0 -7 -7 -16 -16 -20 -13 -5 -15 -15 -10 -47 5 -33 4 -37 -5
-22 -6 10 -9 33 -6 52 3 18 1 36 -4 39 -5 4 -9 -1 -9 -9 0 -9 -7 -16 -15 -16
-11 0 -15 -11 -15 -40 0 -36 -2 -40 -25 -40 -19 0 -25 -5 -25 -21 0 -12 -7
-27 -15 -33 -11 -8 -15 -35 -16 -98 -2 -66 -6 -88 -16 -88 -9 0 -13 13 -13 40
0 22 -4 40 -10 40 -5 0 -10 -18 -10 -40 0 -29 -4 -40 -15 -40 -11 0 -15 -11
-15 -40 0 -29 -4 -40 -15 -40 -12 0 -15 -16 -15 -80 0 -47 -4 -80 -10 -80 -6
0 -10 33 -10 80 l0 80 -40 0 -40 0 0 -80 0 -80 -79 0 c-54 0 -81 -4 -84 -12
-4 -10 -7 -10 -18 -1 -7 7 -23 13 -36 13 -16 0 -23 6 -23 19 0 10 -7 21 -15
25 -8 3 -15 11 -15 17 0 6 -11 22 -25 35 -14 13 -25 27 -25 31 0 5 -13 17 -30
26 -16 10 -30 23 -30 29 0 5 -7 8 -15 4 -11 -4 -15 1 -15 16 0 20 -2 20 -14 8
-14 -15 -20 -42 -16 -70 1 -8 6 -1 9 15 5 20 10 -12 15 -98 5 -70 6 -131 2
-134 -3 -4 -6 24 -6 61 0 39 -4 65 -9 61 -5 -3 -11 5 -14 17 -2 13 -2 -15 0
-62 2 -58 0 -79 -6 -65 -8 16 -10 12 -12 -25 -2 -25 -2 -58 -1 -74 2 -16 -2
-43 -8 -60 -5 -17 -11 -61 -12 -98 -1 -38 -5 -68 -10 -68 -5 0 -8 -21 -7 -47
2 -51 -3 -110 -19 -233 -6 -41 -11 -102 -11 -135 0 -33 -8 -132 -17 -220 -8
-88 -16 -167 -16 -175 0 -8 -4 -51 -10 -95 -22 -201 -26 -347 -8 -353 6 -2 10
-11 11 -20 0 -11 2 -12 6 -4 2 6 14 12 24 12 11 0 18 4 15 9 -3 5 1 11 8 14 8
3 17 1 19 -6 2 -8 17 -3 43 15 22 16 48 28 57 28 26 0 148 39 189 61 20 10 44
19 52 19 9 0 16 4 16 10 0 5 16 12 35 16 22 4 37 13 41 27 6 18 7 18 16 4 12
-23 25 -21 31 2 4 17 12 19 53 17 27 -2 39 -2 26 1 -39 8 -6 33 43 33 57 0 75
8 76 34 1 19 2 19 9 -4 8 -24 8 -24 9 -2 1 32 21 27 21 -5 1 -47 18 -5 23 57
3 30 8 75 11 100 3 25 15 144 26 265 11 121 25 267 31 325 6 58 13 123 14 145
7 97 18 217 30 340 3 28 7 84 11 125 3 41 10 120 15 175 5 55 14 154 19 220 5
66 16 201 25 300 8 99 20 232 25 295 12 135 15 166 30 320 32 327 36 380 25
392 -7 8 -7 9 1 5 11 -6 13 11 29 193 2 25 9 95 15 155 6 61 17 189 25 285 23
275 44 507 55 610 5 52 14 151 20 220 6 69 17 193 25 275 8 83 24 242 35 355
11 113 29 295 39 405 11 110 30 299 41 420 11 121 28 281 36 355 9 74 17 158
19 185 6 87 31 343 184 1855 22 217 47 472 56 565 8 94 20 211 25 260 5 50 18
185 29 300 12 116 24 221 27 235 3 14 7 53 9 86 2 34 10 124 19 200 9 77 30
272 46 434 17 162 37 354 45 425 7 72 21 202 30 290 9 88 23 203 31 255 16
108 18 132 40 395 8 105 29 323 45 485 17 162 39 387 49 500 24 249 37 377 51
495 6 50 12 115 13 145 2 30 6 87 9 125 4 39 23 248 42 465 19 217 44 488 55
602 11 114 23 275 26 357 l7 151 -991 0 -992 0 0 -80z m140 -270 c0 -16 -4
-30 -10 -30 -5 0 -10 14 -10 30 0 17 5 30 10 30 6 0 10 -13 10 -30z m0 -100
c0 -20 -5 -30 -15 -30 -8 0 -15 -6 -15 -14 0 -8 7 -16 15 -20 8 -3 15 -15 15
-26 0 -15 -7 -20 -25 -20 -16 0 -25 6 -25 15 0 8 -7 15 -15 15 -17 0 -22 49
-5 51 6 1 15 3 20 4 6 1 15 3 20 4 6 0 10 12 10 26 0 14 5 25 10 25 6 0 10
-13 10 -30z m-60 -510 c0 -47 -4 -80 -10 -80 -6 0 -10 33 -10 80 0 47 4 80 10
80 6 0 10 -33 10 -80z m-2 -763 c-1 -93 -3 -111 -9 -77 -11 68 -11 212 1 205
6 -4 9 -56 8 -128z m32 -797 c0 -22 -4 -40 -10 -40 -5 0 -10 18 -10 40 0 22 5
40 10 40 6 0 10 -18 10 -40z m55 -50 c-3 -5 -10 -10 -16 -10 -5 0 -9 5 -9 10
0 6 7 10 16 10 8 0 12 -4 9 -10z m-85 -430 c0 -73 -4 -120 -10 -120 -6 0 -10
47 -10 120 0 73 4 120 10 120 6 0 10 -47 10 -120z m-6130 -1621 c0 -64 -4 -98
-10 -94 -14 9 -8 195 6 195 2 0 4 -45 4 -101z m-6 -641 c-3 -139 -9 -496 -14
-793 -5 -297 -15 -875 -21 -1285 -6 -410 -15 -752 -20 -760 -11 -20 -11 318 1
987 5 302 15 843 21 1203 17 978 15 913 28 906 4 -3 7 -119 5 -258z m4917 -8
c20 -6 63 -12 95 -14 33 -1 66 -5 74 -8 8 -4 51 -11 95 -17 44 -6 139 -20 210
-31 72 -12 154 -24 183 -27 l54 -6 -4 -56 c-3 -50 -1 -56 17 -56 17 0 20 8 23
49 l3 48 32 -7 c18 -3 70 -10 117 -15 47 -4 144 -18 215 -29 72 -11 134 -21
138 -21 4 0 5 -15 2 -32 -3 -18 -14 -141 -25 -273 -20 -242 -57 -676 -85 -990
-23 -263 -32 -365 -75 -865 -22 -256 -42 -495 -46 -532 l-6 -68 -252 0 c-138
0 -328 3 -422 7 l-172 6 79 60 c43 32 79 62 79 64 0 3 -6 1 -12 -4 -7 -5 -47
-35 -89 -66 l-75 -57 -100 0 -99 0 66 63 c36 34 77 70 90 80 l24 18 -30 -15
c-16 -8 -63 -45 -103 -81 l-73 -67 -282 7 c-155 4 -285 9 -288 11 -3 2 -15 -7
-27 -20 -19 -22 -28 -55 -22 -81 1 -5 3 -14 5 -20 1 -5 3 -18 3 -27 2 -15 12
-18 59 -18 44 0 54 -3 45 -12 -24 -24 -11 -28 25 -8 25 13 57 20 95 20 63 0
63 0 47 -33 -7 -16 -4 -14 11 6 12 15 26 27 32 27 12 0 0 -59 -16 -79 -8 -12
-8 -13 2 -7 7 4 20 24 30 43 13 27 24 37 45 39 29 3 29 2 -20 -50 -26 -30 -54
-52 -60 -50 -7 2 -12 0 -11 -4 1 -4 -17 -36 -40 -71 -39 -59 -42 -61 -36 -30
3 19 12 57 20 86 16 60 18 76 5 68 -5 -3 -13 -20 -16 -38 -12 -55 -57 -211
-67 -230 -5 -10 -11 -36 -13 -58 -4 -31 -78 -189 -90 -189 -5 0 6 80 21 155
45 220 53 264 58 299 9 82 -13 14 -39 -119 -15 -77 -34 -150 -41 -162 -8 -12
-14 -35 -14 -50 0 -89 -32 -205 -96 -343 -49 -108 -63 -149 -57 -163 8 -17 11
-13 23 24 21 66 69 176 70 159 0 -8 -7 -39 -15 -69 -8 -30 -12 -58 -9 -63 5
-8 -16 -78 -26 -88 -12 -12 -60 -122 -60 -138 0 -9 -8 -30 -17 -47 -9 -16 -17
-43 -19 -60 -4 -45 -25 -118 -39 -135 -7 -8 -16 -25 -20 -38 -4 -13 -9 -21
-12 -19 -6 7 7 70 59 297 22 96 47 204 54 240 17 76 46 302 40 307 -5 5 -12
-29 -21 -102 -4 -27 -13 -65 -20 -85 -8 -19 -24 -89 -35 -155 -12 -66 -24
-122 -26 -124 -9 -9 -3 61 12 145 17 101 42 272 50 354 4 30 2 71 -4 90 -9 32
-10 28 -11 -40 -1 -80 -28 -272 -61 -435 -11 -55 -25 -125 -30 -155 -6 -30
-20 -93 -30 -140 -10 -47 -24 -109 -30 -137 -8 -35 -17 -53 -27 -53 -10 0 -14
9 -12 33 3 46 -11 119 -27 138 -10 11 -16 54 -19 135 -3 65 -7 135 -9 154 -2
19 1 44 7 54 13 26 18 96 6 96 -5 0 -9 33 -10 73 0 39 -4 81 -9 92 -5 12 -9
14 -9 6 -2 -31 -11 -1 -16 50 -21 222 -45 573 -41 586 4 9 16 13 33 11 25 -3
28 -7 29 -38 1 -95 8 -111 13 -31 l6 84 34 -34 c22 -22 32 -27 27 -15 -3 10
-3 24 2 30 10 13 51 127 57 157 5 25 106 231 112 226 2 -2 -11 -35 -28 -73
-46 -101 -96 -242 -103 -294 l-7 -45 20 40 c17 35 19 37 20 15 l1 -25 20 30
c21 31 27 71 10 60 -13 -8 -13 11 1 36 5 11 14 17 19 14 6 -3 7 0 5 8 -3 7 5
19 20 27 27 14 31 25 15 35 -5 3 -10 16 -10 28 0 18 6 23 28 22 23 0 26 4 24
24 -2 15 0 21 7 17 7 -5 11 4 11 22 0 35 9 45 26 31 14 -11 21 -3 28 32 8 46
17 60 31 49 9 -7 19 -1 36 25 15 22 32 35 46 35 25 0 22 -24 -3 -34 -15 -6
-18 -86 -2 -86 11 0 10 -48 -2 -55 -16 -10 -12 -36 8 -51 16 -12 16 -15 0 -43
-9 -17 -13 -33 -9 -36 5 -2 33 0 62 5 30 5 70 11 89 13 l35 3 -37 7 c-21 4
-54 9 -73 12 -27 5 -35 11 -35 26 0 11 3 18 8 16 4 -3 7 44 7 104 0 97 2 109
18 109 15 0 15 3 5 20 -7 11 -19 20 -26 20 -9 0 -12 6 -8 15 3 8 1 15 -3 15
-5 0 -12 -6 -14 -12 -16 -39 9 323 52 777 6 61 15 184 21 275 5 91 14 215 20
275 5 61 14 166 20 235 5 69 15 179 20 245 6 66 15 163 19 215 l8 95 2 -70 c1
-38 6 -79 11 -90 5 -13 7 -2 3 30 -2 28 0 61 6 75 11 24 11 24 6 -5 -4 -22 -3
-26 5 -15 5 8 10 33 10 55 0 22 7 81 15 130 8 50 18 119 21 155 8 80 14 89 15
24 1 -27 5 -62 9 -79 7 -29 8 -29 9 10 3 57 24 130 44 153 9 10 17 23 17 29 0
27 187 43 261 23z m1378 -132 c-1 -24 -3 -35 -6 -25 -2 9 -12 17 -21 17 -13 0
-14 2 -4 8 7 5 10 16 6 25 -4 12 -1 17 10 17 12 0 16 -10 15 -42z m-1802 -270
c-3 -8 -6 -5 -6 6 -1 11 2 17 5 13 3 -3 4 -12 1 -19z m1621 -1463 c-3 -3 -9 2
-12 12 -6 14 -5 15 5 6 7 -7 10 -15 7 -18z m-1 -57 c-3 -8 -6 -5 -6 6 -1 11 2
17 5 13 3 -3 4 -12 1 -19z m-8 -102 c-9 -8 -10 -7 -5 7 3 10 7 24 7 30 1 7 3
4 6 -7 3 -10 -1 -23 -8 -30z m331 -26 l0 -40 -80 0 -80 0 0 40 0 40 80 0 80 0
0 -40z m-333 -52 c-2 -13 -4 -3 -4 22 0 25 2 35 4 23 2 -13 2 -33 0 -45z
m-2840 -4 c-3 -3 -12 -4 -19 -1 -8 3 -5 6 6 6 11 1 17 -2 13 -5z m98 -4 c3 -5
0 -10 -7 -10 -9 0 -14 -13 -15 -35 -1 -20 -6 -41 -11 -48 -13 -15 -17 -125 -7
-150 5 -12 1 -28 -13 -46 l-20 -28 26 -11 c25 -11 23 -11 -16 -7 -28 4 -41 2
-37 -5 3 -5 13 -10 21 -10 11 0 13 -9 8 -42 -9 -72 -14 -90 -29 -105 -13 -13
-15 -4 -15 67 0 61 -3 81 -12 77 -7 -2 -13 -16 -13 -30 1 -14 -1 -24 -4 -22
-2 3 -11 -1 -19 -8 -13 -10 -14 -9 -2 13 11 21 7 20 -25 -10 -54 -50 -27 -2
31 57 41 40 44 47 40 86 -10 100 -19 158 -27 163 -5 3 -9 18 -9 35 0 20 5 29
17 29 9 0 31 5 49 12 30 10 31 13 16 24 -15 12 -11 13 25 14 23 0 45 -4 48
-10z m585 -20 c10 -7 -13 -9 -74 -5 -49 2 -91 7 -94 10 -10 9 153 5 168 -5z
m2165 -30 c3 -5 1 -10 -4 -10 -6 0 -11 5 -11 10 0 6 2 10 4 10 3 0 8 -4 11
-10z m523 -207 c-2 -25 -8 -37 -20 -39 -15 -2 -18 5 -18 37 0 33 3 39 21 39
17 0 20 -5 17 -37z m-3428 -78 c0 -2 -14 -12 -30 -20 -17 -9 -54 -39 -82 -68
l-51 -52 28 42 c30 46 135 122 135 98z m-325 -87 c4 -18 13 -40 20 -48 7 -8
20 -49 30 -90 9 -41 23 -87 31 -101 7 -14 11 -29 7 -32 -3 -4 1 -9 10 -13 13
-4 14 -10 7 -24 -6 -10 -10 -30 -10 -44 0 -25 -2 -26 -65 -26 -58 0 -65 2 -65
19 0 11 -5 23 -11 27 -6 3 -9 15 -6 25 7 24 -3 24 -39 -2 -26 -19 -26 -18 3 8
24 22 30 34 26 54 -3 15 0 30 6 33 5 4 8 13 5 20 -3 8 -1 17 5 21 14 8 14 60
1 86 -8 13 -7 19 0 19 6 0 10 8 9 18 -4 25 11 82 21 82 5 0 12 -15 15 -32z
m339 -14 c3 -8 2 -12 -4 -9 -6 3 -10 10 -10 16 0 14 7 11 14 -7z m950 -26
c-21 -37 -47 -69 -51 -64 -6 6 44 76 53 76 3 0 2 -6 -2 -12z m-950 -28 c3 -16
4 -42 2 -57 -2 -16 -1 -20 1 -10 7 29 23 8 23 -31 0 -45 -10 -83 -19 -78 -6 4
-11 -32 -15 -106 -1 -20 -6 -28 -20 -28 -13 0 -16 4 -9 13 5 6 8 41 7 77 -1
36 4 71 10 79 9 12 7 13 -8 8 -16 -6 -17 -5 -6 8 7 8 9 22 6 31 -8 20 4 124
14 124 4 0 10 -13 14 -30z m89 -57 c-2 -32 -6 -64 -8 -71 -3 -7 0 -10 5 -7 14
9 12 -10 -5 -53 -11 -27 -11 -32 -2 -20 9 12 17 14 24 7 7 -7 4 -23 -10 -50
-15 -31 -17 -43 -8 -49 9 -5 6 -9 -10 -13 -27 -7 -58 6 -40 17 6 4 11 14 11
22 0 8 -4 12 -10 9 -15 -9 -12 11 11 95 12 41 23 91 26 110 10 79 22 81 16 3z
m462 -115 c-5 -101 -4 -108 15 -118 21 -11 19 -30 -3 -30 -7 0 -6 4 3 10 13 8
12 10 -2 10 -10 0 -18 -7 -18 -15 0 -19 -16 -20 -23 0 -7 17 1 249 10 285 l6
25 9 -30 c5 -16 6 -78 3 -137z m575 130 c0 -7 -5 -20 -10 -28 -8 -11 -9 -9 -8
13 2 26 18 40 18 15z m-1186 -135 c-7 -30 -24 -55 -24 -35 0 12 21 62 27 62 2
0 0 -12 -3 -27z m628 -35 c-6 -6 -7 0 -4 19 5 21 7 23 10 9 2 -10 0 -22 -6
-28z m-1059 -1 c3 -7 3 -25 0 -40 -3 -16 -1 -27 6 -27 5 0 8 -7 5 -15 -4 -10
-20 -15 -46 -15 -39 0 -40 1 -33 27 3 15 10 30 14 33 5 3 13 15 20 28 13 25
26 28 34 9z m410 -60 c-3 -20 -10 -37 -14 -37 -8 0 -5 30 7 69 8 26 13 5 7
-32z m2854 -4 c-3 -10 -5 -2 -5 17 0 19 2 27 5 18 2 -10 2 -26 0 -35z m-2517
-13 c0 -5 -5 -10 -11 -10 -5 0 -7 5 -4 10 3 6 8 10 11 10 2 0 4 -4 4 -10z
m277 -82 c-3 -7 -5 -2 -5 12 0 14 2 19 5 13 2 -7 2 -19 0 -25z m3430 -35 c-3
-10 -5 -4 -5 12 0 17 2 24 5 18 2 -7 2 -21 0 -30z m-2406 -25 c-22 -29 -36
-57 -32 -61 5 -5 34 -7 65 -5 31 1 56 2 56 0 0 -1 -39 -44 -86 -95 -48 -50
-105 -116 -128 -145 -23 -30 -54 -70 -69 -90 -80 -104 -42 -33 70 131 40 59
73 110 73 112 0 18 -22 -3 -52 -47 -114 -174 -202 -304 -211 -313 -9 -10 56
116 117 225 17 30 29 61 28 68 -2 7 1 12 5 11 19 -3 27 2 16 9 -10 6 -5 20 18
56 16 27 32 46 35 43 3 -3 -6 -24 -20 -46 -33 -52 -28 -52 13 -1 25 31 30 44
22 54 -8 10 -6 18 10 32 11 10 36 40 56 66 19 27 39 48 44 48 6 0 -8 -24 -30
-52z m2396 -35 c-3 -10 -5 -4 -5 12 0 17 2 24 5 18 2 -7 2 -21 0 -30z m-2520
-70 c-18 -27 -57 -97 -85 -156 -28 -59 -74 -146 -102 -192 -28 -47 -49 -89
-46 -93 6 -9 -48 -107 -65 -117 -6 -4 -4 6 5 23 8 16 13 32 10 35 -4 3 10 55
30 115 19 60 37 120 40 133 9 51 62 128 145 211 47 48 90 88 94 88 5 0 -7 -21
-26 -47z m188 -70 c-35 -60 -83 -144 -106 -188 -23 -44 -98 -165 -167 -270
-215 -326 -223 -341 -277 -475 -73 -181 -64 -143 60 254 58 188 87 245 193
381 92 119 127 157 135 148 3 -3 16 2 29 11 12 9 18 16 12 16 -5 0 -15 -5 -22
-12 -6 -6 -15 -9 -18 -5 -7 7 97 128 152 176 19 17 31 31 27 31 -6 0 37 39 44
40 1 0 -26 -48 -62 -107z m87 56 c-16 -24 -41 -62 -55 -84 -70 -107 -146 -212
-125 -170 35 67 165 274 180 288 32 27 32 13 0 -34z m307 42 c44 -1 52 -4 47
-17 -4 -9 -2 -13 5 -8 7 4 9 0 6 -12 -3 -11 -11 -39 -17 -64 -14 -55 -63 -159
-103 -220 -16 -25 -114 -128 -216 -230 -181 -179 -623 -643 -629 -661 -2 -5
-10 -9 -18 -9 -8 0 -14 -6 -14 -13 0 -7 -14 -28 -31 -47 -17 -19 -28 -30 -26
-25 7 17 120 250 269 555 91 184 163 319 194 360 70 92 122 160 146 192 11 15
25 25 31 21 6 -3 7 -1 3 6 -8 12 37 92 83 148 l26 32 95 -4 c52 -2 119 -4 149
-4z m266 -11 c3 -5 -1 -10 -10 -10 -9 0 -13 5 -10 10 3 6 8 10 10 10 2 0 7 -4
10 -10z m140 0 c8 -13 -5 -13 -25 0 -13 8 -13 10 2 10 9 0 20 -4 23 -10z
m1455 -176 c0 -43 -4 -74 -10 -74 -6 0 -10 34 -10 81 0 51 4 78 10 74 6 -3 10
-40 10 -81z m80 -44 c0 -5 -4 -10 -10 -10 -5 0 -10 5 -10 10 0 6 5 10 10 10 6
0 10 -4 10 -10z m-3396 -137 c3 -16 8 -73 11 -128 l5 -100 -14 65 c-17 84 -26
190 -16 190 4 0 10 -12 14 -27z m-38 -83 c-5 -63 -3 -84 7 -95 8 -7 17 -44 21
-82 13 -140 26 -350 25 -408 l-2 -60 -7 60 c-5 33 -14 123 -20 200 -7 77 -14
160 -17 184 -2 25 -9 51 -16 60 -13 15 -15 190 -3 210 16 25 19 7 12 -69z
m3378 40 c13 -32 10 -90 -5 -90 -5 0 -9 18 -9 39 0 22 -4 43 -10 46 -13 8 -13
35 0 35 6 0 17 -14 24 -30z m-37 -82 c-3 -8 -6 -5 -6 6 -1 11 2 17 5 13 3 -3
4 -12 1 -19z m-2751 -39 c-8 -24 -22 -71 -32 -104 -18 -61 -63 -150 -71 -141
-10 10 29 151 55 200 33 62 55 96 59 92 2 -1 -3 -22 -11 -47z m141 -255 c-111
-222 -237 -491 -240 -515 -2 -11 -9 -25 -15 -31 -26 -26 -22 5 11 89 19 48 53
138 76 198 23 61 64 145 89 186 129 209 156 249 159 245 2 -2 -34 -80 -80
-172z m-157 17 c-33 -78 -60 -146 -60 -150 0 -4 -7 -16 -15 -27 -16 -21 -15
-16 19 86 19 60 106 243 112 237 2 -2 -23 -68 -56 -146z m-719 -15 c15 -45 40
-112 54 -149 22 -61 25 -82 25 -205 0 -165 -14 -205 -25 -71 -8 118 -32 294
-34 254 0 -16 8 -185 19 -374 11 -190 18 -347 15 -349 -11 -11 -16 9 -30 118
-13 100 -16 142 -14 225 0 43 -23 241 -36 304 -7 36 -16 134 -20 216 -7 168
-3 171 46 31z m138 -34 c0 -13 -3 -20 -9 -17 -5 3 -9 27 -9 53 1 42 2 44 9 17
4 -16 8 -40 9 -53z m30 -322 c20 -230 22 -280 13 -280 -5 0 -12 42 -15 93 -3
50 -13 117 -21 148 -17 64 -19 102 -9 209 l7 75 7 -60 c4 -33 12 -116 18 -185z
m248 -12 c-3 -8 -6 -5 -6 6 -1 11 2 17 5 13 3 -3 4 -12 1 -19z m123 -48 c-6
-11 -15 -45 -20 -74 -10 -64 -40 -169 -46 -163 -7 7 35 196 52 236 8 18 17 31
20 28 3 -3 0 -15 -6 -27z m31 -23 c-10 -9 -11 -8 -5 6 3 10 9 15 12 12 3 -3 0
-11 -7 -18z m299 10 c0 -2 -17 -19 -37 -38 -34 -31 -31 -21 6 24 12 15 31 23
31 14z m-608 -309 c-3 -58 -9 -98 -15 -98 -6 0 -8 22 -3 61 3 34 7 107 8 163
1 94 1 96 7 36 4 -36 5 -109 3 -162z m457 190 c10 -27 8 -34 -11 -55 -22 -23
-48 -31 -48 -14 0 6 5 13 11 17 8 5 6 10 -5 16 -20 11 -20 27 1 50 24 26 40
22 52 -14z m-109 -28 c0 -5 -7 -10 -16 -10 -8 0 -12 5 -9 10 3 6 10 10 16 10
5 0 9 -4 9 -10z m30 -26 c0 -8 -4 -12 -10 -9 -5 3 -10 10 -10 16 0 5 5 9 10 9
6 0 10 -7 10 -16z m-60 -19 c-7 -9 -15 -13 -18 -10 -3 2 1 11 8 20 7 9 15 13
18 10 3 -2 -1 -11 -8 -20z m54 -20 c15 -23 15 -25 -2 -34 -16 -8 -18 -5 -18
25 0 19 1 34 2 34 1 0 9 -11 18 -25z m-497 -17 c-3 -7 -5 -2 -5 12 0 14 2 19
5 13 2 -7 2 -19 0 -25z m463 12 c0 -5 -5 -10 -11 -10 -5 0 -7 5 -4 10 3 6 8
10 11 10 2 0 4 -4 4 -10z m-194 -61 c-9 -22 -15 -27 -15 -16 -1 21 18 61 25
54 3 -3 -2 -20 -10 -38z m-269 -1 c-3 -7 -5 -2 -5 12 0 14 2 19 5 13 2 -7 2
-19 0 -25z m443 12 c0 -5 -4 -10 -10 -10 -5 0 -10 5 -10 10 0 6 5 10 10 10 6
0 10 -4 10 -10z m46 -32 c-18 -26 -22 -17 -5 14 6 11 13 17 16 15 3 -3 -2 -16
-11 -29z m-449 0 c-3 -8 -6 -5 -6 6 -1 11 2 17 5 13 3 -3 4 -12 1 -19z m395
-94 c-16 -33 -38 -92 -48 -131 -10 -40 -21 -73 -25 -73 -4 0 -12 22 -19 49
-10 44 -9 56 13 118 14 37 33 85 43 106 l18 38 24 -25 24 -24 -30 -58z m-495
29 c-3 -10 -5 -4 -5 12 0 17 2 24 5 18 2 -7 2 -21 0 -30z m300 -15 c-3 -8 -6
-5 -6 6 -1 11 2 17 5 13 3 -3 4 -12 1 -19z m49 -25 c-11 -11 -17 4 -9 23 7 18
8 18 11 1 2 -10 1 -21 -2 -24z m-229 -25 c-3 -8 -6 -5 -6 6 -1 11 2 17 5 13 3
-3 4 -12 1 -19z m156 -40 c-7 -41 -22 -71 -23 -47 0 18 20 79 26 79 2 0 1 -15
-3 -32z m-103 3 c0 -6 -4 -13 -10 -16 -5 -3 -10 1 -10 9 0 9 5 16 10 16 6 0
10 -4 10 -9z m-30 -99 c0 -50 -24 -180 -35 -190 -4 -4 -4 13 0 38 5 25 9 77
11 115 3 98 3 97 14 90 6 -3 10 -27 10 -53z m147 -53 c-13 -39 -14 -40 -19
-15 -3 14 -1 26 3 26 5 0 9 8 9 18 0 10 3 22 7 26 14 14 14 -13 0 -55z m103
40 c0 -5 -7 -9 -15 -9 -15 0 -20 12 -9 23 8 8 24 -1 24 -14z m-413 -51 c-2
-13 -4 -3 -4 22 0 25 2 35 4 23 2 -13 2 -33 0 -45z m428 -27 c-4 -19 -15 -52
-26 -73 -11 -21 -17 -43 -14 -47 3 -5 -3 -38 -14 -73 -10 -34 -26 -94 -36
-133 -10 -38 -21 -74 -24 -80 -4 -5 -20 -50 -36 -99 -17 -48 -36 -91 -43 -93
-22 -9 -40 28 -35 71 4 30 135 453 178 573 3 10 10 10 30 1 24 -11 26 -16 20
-47z m125 9 c11 -7 6 -10 -20 -10 -34 -1 -34 -1 -11 -14 l23 -13 -31 -35 c-25
-29 -31 -44 -31 -82 0 -25 -4 -46 -10 -46 -5 0 -10 13 -10 29 0 17 -4 33 -10
36 -5 3 -10 -3 -10 -14 0 -11 -9 -25 -20 -31 -17 -9 -20 -8 -20 9 0 11 4 22 9
25 5 4 12 24 16 46 13 75 80 129 125 100z m-265 -49 c-3 -12 -10 -21 -15 -21
-5 0 -4 11 2 25 13 29 23 26 13 -4z m243 -55 c-13 -19 -26 -32 -30 -30 -9 6
32 64 44 64 4 0 -2 -15 -14 -34z m-117 -156 c-20 -26 -38 -46 -39 -44 -11 8
13 68 36 89 42 39 45 8 3 -45z m46 -12 c-3 -13 3 -43 13 -68 l18 -45 11 28
c14 37 14 42 -3 28 -15 -13 -26 4 -26 40 0 26 29 24 40 -3 9 -23 9 -23 9 -1 1
12 -5 23 -11 26 -7 2 -10 8 -6 12 10 11 58 -22 58 -41 0 -8 -7 -17 -15 -20 -8
-4 -15 -15 -15 -26 0 -12 -4 -17 -12 -12 -7 5 -8 3 -4 -5 5 -7 0 -21 -10 -32
-9 -10 -13 -19 -7 -19 14 0 40 31 51 59 5 14 11 20 15 14 3 -5 -1 -22 -9 -37
-17 -33 -17 -39 -4 -31 6 3 10 0 10 -8 0 -8 -24 -27 -54 -42 -62 -31 -106 -29
-106 5 0 31 -18 23 -25 -10 -6 -25 -9 -29 -21 -19 -11 9 -14 8 -14 -2 0 -9 -3
-10 -10 -3 -7 7 -8 19 -2 35 28 70 46 109 50 109 3 0 14 -8 25 -17 19 -17 19
-17 13 4 -5 16 -2 23 11 26 12 3 8 5 -9 6 -35 1 -35 8 -1 43 32 34 47 36 40 6z
m-487 -68 c0 -5 -15 -10 -34 -10 -19 0 -38 5 -41 10 -4 6 10 10 34 10 23 0 41
-4 41 -10z m450 -244 c0 -8 -51 -13 -56 -5 -3 5 9 9 25 9 17 0 31 -2 31 -4z
m-225 -26 c3 -5 2 -10 -4 -10 -5 0 -13 5 -16 10 -3 6 -2 10 4 10 5 0 13 -4 16
-10z m20 -70 c3 -5 -3 -10 -15 -10 -12 0 -18 5 -15 10 3 6 10 10 15 10 5 0 12
-4 15 -10z m16 -33 c-10 -9 -11 -8 -5 6 3 10 9 15 12 12 3 -3 0 -11 -7 -18z
m-61 2 c0 -4 -9 -9 -20 -12 -13 -3 -20 0 -20 8 0 8 9 13 20 12 11 -1 20 -4 20
-8z m-85 -59 c-4 -17 -9 -30 -11 -27 -2 2 -1 18 2 36 4 17 9 30 11 27 3 -2 2
-19 -2 -36z m67 24 c-13 -9 -26 -13 -30 -9 -8 8 17 25 38 25 9 0 6 -6 -8 -16z
m34 -31 c-5 -12 -10 -13 -18 -5 -8 8 -8 15 3 28 15 18 25 4 15 -23z m3101 -95
c-3 -7 -5 -2 -5 12 0 14 2 19 5 13 2 -7 2 -19 0 -25z m-60 -650 c-2 -13 -4 -5
-4 17 -1 22 1 32 4 23 2 -10 2 -28 0 -40z m-3267 -210 c0 -9 4 -8 10 2 8 12
10 11 10 -7 0 -12 6 -23 13 -26 10 -4 10 -7 0 -18 -10 -10 -13 -10 -13 0 0 17
-25 8 -26 -10 -1 -8 -2 -20 -3 -27 0 -7 -5 -11 -10 -8 -5 3 -7 20 -5 38 1 18
3 41 3 51 1 19 21 24 21 5z m80 -18 c0 -5 -4 -10 -10 -10 -5 0 -10 5 -10 10 0
6 5 10 10 10 6 0 10 -4 10 -10z m10 -34 c0 -8 6 -16 13 -19 21 -8 -1 -20 -35
-19 -18 0 -38 -4 -45 -10 -10 -8 -13 -6 -13 9 0 14 7 19 28 18 20 0 26 4 24
18 -2 10 3 17 13 17 8 0 15 -6 15 -14z m1618 -162 c-10 -9 -302 -48 -428 -57
-79 -6 -48 10 38 19 32 4 71 12 89 20 20 8 33 9 35 2 2 -5 15 -7 31 -3 15 4
24 11 21 16 -3 5 44 9 107 9 62 0 110 -3 107 -6z m-500 -131 c-10 -2 -28 -2
-40 0 -13 2 -5 4 17 4 22 1 32 -1 23 -4z m540 0 c-10 -2 -26 -2 -35 0 -10 3
-2 5 17 5 19 0 27 -2 18 -5z m82 -5 c-36 -10 -94 -20 -189 -34 -40 -5 -52 -4
-47 4 4 7 16 12 27 12 10 0 19 4 19 9 0 6 29 7 70 4 49 -4 70 -3 70 6 0 7 17
11 43 10 l42 -1 -35 -10z m77 6 c-3 -3 -12 -4 -19 -1 -8 3 -5 6 6 6 11 1 17
-2 13 -5z m313 -7 c0 -5 18 -6 43 -2 23 4 40 5 37 2 -3 -3 -61 -15 -130 -27
-69 -11 -168 -30 -220 -40 -52 -11 -124 -24 -160 -29 -36 -6 -132 -22 -215
-36 -82 -15 -172 -30 -200 -35 -27 -4 -144 -24 -260 -45 -328 -57 -475 -82
-1215 -209 -329 -56 -865 -151 -1285 -226 -55 -10 -145 -26 -200 -35 -307 -53
-827 -146 -868 -156 -44 -10 -50 -9 -81 14 -18 14 -54 38 -80 52 -26 15 -91
54 -143 88 -79 51 -91 63 -72 65 13 2 28 8 34 13 5 5 23 9 40 9 37 0 161 24
196 38 15 6 29 16 31 22 2 6 22 15 45 21 68 15 253 39 301 39 44 0 212 27 242
38 8 4 26 6 40 7 118 3 307 19 317 27 7 5 18 8 25 5 8 -4 7 -6 -4 -6 -10 -1
-18 -6 -18 -12 0 -8 12 -9 38 -4 20 4 51 7 69 6 18 0 35 4 38 9 3 6 25 10 48
11 23 0 36 3 30 6 -7 2 -13 9 -13 14 0 12 84 11 139 -2 30 -7 47 -7 55 1 13
13 53 13 61 0 3 -5 21 -9 38 -9 30 2 31 2 5 6 -16 2 -28 9 -28 14 0 12 32 12
66 -1 15 -6 30 -7 33 -2 8 11 135 32 198 32 26 0 55 5 63 11 11 8 3 9 -30 4
-24 -3 -138 -8 -254 -11 -186 -4 -207 -3 -196 11 15 17 105 21 159 5 23 -6 39
-6 50 1 14 9 14 10 -1 5 -12 -3 -15 -1 -11 10 4 11 -6 14 -48 14 -78 0 -48 16
44 24 54 5 77 4 72 -4 -3 -5 -15 -10 -26 -10 -10 0 -19 -3 -19 -7 0 -13 34
-43 49 -43 14 0 14 2 1 10 -8 5 -13 10 -10 10 3 1 46 2 95 4 114 4 205 16 205
27 0 4 9 10 19 14 12 3 18 12 15 20 -7 17 53 32 69 16 15 -15 28 -14 25 1 -4
18 129 35 154 19 23 -14 49 -15 28 0 -15 11 -6 9 51 -7 16 -4 19 -3 14 6 -6
10 -1 12 19 8 15 -3 42 -2 59 2 50 11 67 -2 18 -14 -55 -14 -66 -35 -19 -37
23 -1 26 -3 11 -6 -13 -2 -23 -9 -23 -14 0 -13 51 -10 150 7 145 26 181 28
175 11 -7 -18 -66 -36 -137 -42 -55 -5 -126 -23 -97 -24 9 -1 29 -7 43 -15 26
-13 25 -13 -26 -15 -78 -2 -121 -13 -149 -38 -15 -12 -22 -12 -55 2 -44 19
-114 29 -114 16 0 -7 13 -14 50 -25 3 -1 12 -6 20 -11 8 -5 39 -8 69 -8 38 1
51 -1 40 -8 -10 -7 -4 -8 20 -5 18 3 38 9 44 15 13 13 51 15 43 2 -6 -8 43 1
126 24 27 7 56 12 65 11 10 -2 12 -1 6 1 -7 3 -13 9 -13 14 0 6 -8 8 -17 5
-50 -15 -73 -17 -73 -8 0 14 67 21 130 12 30 -4 42 -8 26 -9 -16 0 -27 -4 -23
-7 3 -3 25 -3 49 1 37 7 40 9 21 16 -36 13 -27 16 25 8 26 -4 56 -8 67 -8 18
0 18 1 -2 9 -28 12 -30 24 -3 17 21 -5 28 7 10 18 -15 9 -2 25 20 25 25 0 70
21 70 32 0 5 -13 7 -29 3 -48 -10 -156 -12 -129 -2 13 5 38 15 56 23 18 8 56
14 85 15 29 0 93 11 142 24 l90 24 -50 2 -50 2 55 7 c30 4 73 3 95 -2 54 -12
160 2 160 21 0 17 87 40 152 41 23 0 45 5 48 10 3 6 -3 10 -14 10 -12 0 -21 5
-21 10 0 6 11 10 25 10 18 0 25 -5 25 -20 0 -23 10 -26 28 -8 9 9 18 9 38 -1
18 -8 30 -8 39 -1 9 7 21 7 39 0 17 -6 44 -6 77 0 67 13 159 13 159 0 0 -5
-20 -10 -45 -10 -25 0 -45 -4 -45 -10 0 -11 71 -4 145 16 50 13 46 18 -10 14
-48 -3 -17 17 38 25 47 6 49 6 42 -16 -7 -22 -6 -22 60 -15 37 4 76 11 85 16
10 5 71 14 136 20 66 6 128 13 139 16 56 15 61 16 45 5 -11 -8 -5 -9 25 -6 37
4 38 4 10 -5 -16 -5 -51 -12 -77 -15 -27 -4 -48 -11 -48 -17 0 -5 8 -7 17 -4
15 6 264 46 287 46 4 0 6 6 3 13 -4 10 4 14 24 14 16 0 29 -4 29 -10z m-103
-8 c-16 -4 -38 -4 -50 1 -16 6 -9 8 28 8 42 -1 46 -2 22 -9z m-77 -3 c0 -3 -4
-8 -10 -11 -5 -3 -10 -1 -10 4 0 6 5 11 10 11 6 0 10 -2 10 -4z m-2933 -12
c-3 -3 -12 -4 -19 -1 -8 3 -5 6 6 6 11 1 17 -2 13 -5z m1796 -1 c-7 -2 -21 -2
-30 0 -10 3 -4 5 12 5 17 0 24 -2 18 -5z m637 -4 c0 -7 9 -9 21 -6 14 4 18 2
12 -4 -11 -11 -75 0 -67 12 8 13 34 11 34 -2z m-693 -5 c-3 -3 -12 -4 -19 -1
-8 3 -5 6 6 6 11 1 17 -2 13 -5z m-102 -14 c-11 -5 -36 -9 -55 -9 -28 0 -31 2
-15 9 11 5 36 9 55 9 28 0 31 -2 15 -9z m-1660 -10 c8 0 13 -9 12 -20 -2 -26
-37 -27 -37 -1 0 11 -3 21 -7 24 -5 2 -2 2 5 0 8 -1 20 -3 27 -3z m-65 -35 c0
-29 -21 -33 -46 -8 -15 16 -15 17 2 24 34 13 44 9 44 -16z m710 15 c0 -10 -65
-25 -94 -21 -11 2 -16 -2 -12 -8 4 -7 -1 -11 -13 -11 -32 0 -25 19 12 35 37
16 107 20 107 5z m-822 -42 c-6 -18 -28 -21 -28 -4 0 9 7 16 16 16 9 0 14 -5
12 -12z m392 2 c0 -5 -4 -10 -10 -10 -5 0 -10 5 -10 10 0 6 5 10 10 10 6 0 10
-4 10 -10z m1017 4 c-3 -3 -12 -4 -19 -1 -8 3 -5 6 6 6 11 1 17 -2 13 -5z
m-1717 -14 c0 -5 -10 -10 -22 -10 -19 0 -20 2 -8 10 19 13 30 13 30 0z m1957
4 c-3 -3 -12 -4 -19 -1 -8 3 -5 6 6 6 11 1 17 -2 13 -5z m183 -4 c0 -6 -33
-10 -80 -10 -47 0 -80 4 -80 10 0 6 33 10 80 10 47 0 80 -4 80 -10z m-1673 -6
c-3 -3 -12 -4 -19 -1 -8 3 -5 6 6 6 11 1 17 -2 13 -5z m1430 0 c-3 -3 -12 -4
-19 -1 -8 3 -5 6 6 6 11 1 17 -2 13 -5z m-2157 -19 c0 -8 -9 -15 -20 -15 -17
0 -19 2 -8 15 17 19 28 19 28 0z m455 -12 c-9 -8 -19 -13 -22 -9 -9 8 18 37
28 30 5 -3 2 -12 -6 -21z m1538 20 c-7 -2 -19 -2 -25 0 -7 3 -2 5 12 5 14 0
19 -2 13 -5z m-1773 -7 c0 -2 -15 -13 -32 -24 -18 -11 -53 -34 -77 -51 -43
-30 -91 -41 -91 -21 0 6 7 10 15 10 15 0 55 19 65 31 6 8 103 58 113 59 4 0 7
-2 7 -4z m310 -6 c0 -5 -4 -10 -10 -10 -5 0 -10 5 -10 10 0 6 5 10 10 10 6 0
10 -4 10 -10z m100 0 c-20 -13 -43 -13 -35 0 3 6 16 10 28 10 18 0 19 -2 7
-10z m68 -2 c-2 -9 8 -12 30 -10 43 4 41 -14 -3 -22 -49 -10 -101 22 -62 37
22 10 37 7 35 -5z m825 -5 c-7 -2 -21 -2 -30 0 -10 3 -4 5 12 5 17 0 24 -2 18
-5z m-1609 -11 c3 -5 -23 -14 -57 -22 -34 -7 -84 -21 -112 -30 -27 -10 -80
-20 -117 -24 -36 -4 -74 -14 -85 -22 -16 -13 -12 -14 42 -8 40 4 57 3 50 -4
-15 -15 -115 -26 -115 -13 0 6 -18 11 -41 11 -24 0 -38 -4 -34 -10 3 -5 20
-10 37 -10 54 0 26 -8 -47 -13 -39 -3 -59 -2 -45 2 23 7 21 8 -14 12 -35 5
-83 -5 -111 -22 -5 -4 -50 -12 -100 -18 -49 -7 -101 -16 -115 -21 -39 -14
-178 -23 -160 -11 8 6 40 13 70 16 30 3 80 12 110 20 30 8 93 23 139 34 81 20
126 41 87 41 -9 0 -14 5 -11 10 10 15 35 12 35 -5 0 -17 19 -18 130 -3 41 5
86 15 100 22 14 8 84 24 155 36 72 13 139 26 150 31 27 10 53 11 59 1z m442
-14 c-10 -6 -20 -7 -24 -3 -9 8 20 25 31 18 5 -3 2 -10 -7 -15z m139 12 c3 -5
1 -10 -4 -10 -6 0 -11 5 -11 10 0 6 2 10 4 10 3 0 8 -4 11 -10z m100 -11 c25
-12 45 -22 45 -23 0 -4 -125 6 -129 10 -4 4 28 33 37 34 1 0 22 -9 47 -21z
m825 12 c0 -4 -11 -6 -25 -3 -14 2 -25 6 -25 8 0 2 11 4 25 4 14 0 25 -4 25
-9z m216 0 c-5 -8 -83 -31 -105 -31 -6 0 -11 5 -11 10 0 6 10 10 23 10 12 0
29 5 37 10 19 12 63 13 56 1z m434 -1 c0 -5 -16 -10 -35 -10 -19 0 -35 5 -35
10 0 6 16 10 35 10 19 0 35 -4 35 -10z m-2045 -20 c-22 -11 -44 -18 -50 -16
-5 2 6 10 25 19 51 23 71 20 25 -3z m410 -1 c11 -17 -1 -21 -15 -4 -8 9 -8 15
-2 15 6 0 14 -5 17 -11z m-115 -9 c0 -5 -2 -10 -4 -10 -3 0 -8 5 -11 10 -3 6
-1 10 4 10 6 0 11 -4 11 -10z m-797 -7 c-7 -2 -19 -2 -25 0 -7 3 -2 5 12 5 14
0 19 -2 13 -5z m2102 -13 c3 -5 -1 -10 -9 -10 -9 0 -16 5 -16 10 0 6 4 10 9
10 6 0 13 -4 16 -10z m-2207 -12 c-3 -7 -22 -14 -44 -16 -37 -2 -38 -1 -20 13
24 18 69 20 64 3z m435 5 c-7 -2 -19 -2 -25 0 -7 3 -2 5 12 5 14 0 19 -2 13
-5z m137 -7 c0 -2 -7 -6 -15 -10 -8 -3 -15 -1 -15 4 0 6 7 10 15 10 8 0 15 -2
15 -4z m207 -2 c-3 -3 -12 -4 -19 -1 -8 3 -5 6 6 6 11 1 17 -2 13 -5z m98 -4
c3 -5 -1 -10 -9 -10 -8 0 -18 5 -21 10 -3 6 1 10 9 10 8 0 18 -4 21 -10z m164
-6 c2 -2 -14 -4 -37 -4 -22 0 -44 5 -47 10 -6 10 73 3 84 -6z m-514 -8 c18
-13 18 -14 -1 -19 -10 -3 -35 -8 -54 -12 l-35 -7 30 26 c35 30 36 30 60 12z
m-105 -6 c0 -5 -7 -10 -16 -10 -10 0 -14 -6 -10 -15 4 -12 -3 -15 -32 -15 -20
0 -55 -3 -77 -6 -39 -5 -40 -5 -15 10 14 8 39 16 55 16 17 0 39 7 49 15 23 17
46 20 46 5z m305 -10 c19 0 19 0 -1 -14 -11 -8 -39 -19 -62 -25 -46 -13 -55
-27 -19 -33 14 -3 4 -7 -28 -13 -27 -4 -60 -15 -73 -23 -16 -10 -56 -16 -125
-18 -56 -2 -145 -11 -197 -19 -52 -8 -162 -24 -245 -35 -82 -11 -161 -22 -173
-25 -13 -3 -51 -8 -84 -11 -34 -3 -72 -10 -86 -15 -14 -5 -64 -12 -111 -14
-47 -3 -110 -12 -138 -20 -52 -15 -103 -12 -103 7 0 5 15 8 33 6 23 -2 32 1
32 12 0 10 -8 14 -24 12 -20 -2 -22 0 -11 13 10 12 36 13 143 10 79 -3 122 -1
107 4 -15 5 27 7 107 5 112 -3 131 -2 127 11 -4 10 3 16 23 20 15 3 43 10 60
16 18 6 37 8 43 4 5 -3 27 -1 48 5 22 5 72 12 113 15 66 4 154 18 201 31 11 3
15 11 11 22 -6 15 -5 15 10 3 14 -11 25 -12 56 -2 21 6 51 11 67 10 25 0 26
-1 9 -9 -11 -5 -37 -11 -57 -15 -21 -3 -38 -10 -38 -15 0 -12 17 -12 96 -1 70
10 238 87 227 103 -4 8 2 9 18 5 13 -4 33 -7 44 -7z m75 0 c0 -5 -4 -10 -10
-10 -5 0 -10 5 -10 10 0 6 5 10 10 10 6 0 10 -4 10 -10z m-1082 -7 c-21 -5
-23 -19 -5 -26 6 -3 -6 -6 -28 -7 -22 -1 -67 -3 -100 -5 -33 -1 -51 0 -40 2
11 3 28 12 38 21 16 14 19 14 27 2 6 -9 10 -10 10 -3 0 8 11 10 34 6 19 -3 36
-1 40 6 4 6 15 10 24 10 15 -1 15 -2 0 -6z m62 -13 c0 -13 -11 -13 -30 0 -12
8 -11 10 8 10 12 0 22 -4 22 -10z m802 -12 c-7 -7 -12 -8 -12 -2 0 14 12 26
19 19 2 -3 -1 -11 -7 -17z m198 2 c0 -5 -4 -10 -10 -10 -5 0 -10 5 -10 10 0 6
5 10 10 10 6 0 10 -4 10 -10z m133 -8 c-29 -2 -53 -7 -53 -13 0 -12 -47 -12
-55 0 -7 13 130 32 150 21 6 -3 -14 -6 -42 -8z m1467 1 c-14 -3 -29 -9 -34
-14 -6 -5 -17 -9 -25 -9 -10 0 -6 6 9 14 14 8 36 14 50 14 l25 -1 -25 -4z
m-1870 -13 c-8 -5 -24 -9 -35 -9 l-20 0 20 9 c11 5 27 9 35 9 13 1 13 0 0 -9z
m-1020 -4 c0 -8 -51 -13 -56 -5 -3 5 9 9 25 9 17 0 31 -2 31 -4z m770 -16 c0
-5 -4 -10 -10 -10 -5 0 -10 5 -10 10 0 6 5 10 10 10 6 0 10 -4 10 -10z m435 0
c-3 -5 -12 -10 -18 -10 -7 0 -6 4 3 10 19 12 23 12 15 0z m-672 -7 c-13 -2
-33 -2 -45 0 -13 2 -3 4 22 4 25 0 35 -2 23 -4z m-695 -10 c-16 -2 -28 -9 -28
-14 0 -5 -15 -10 -32 -10 l-33 -2 30 -4 c17 -3 35 -9 40 -14 7 -7 7 -10 0 -8
-5 2 -32 -3 -60 -9 -63 -16 -99 -11 -104 14 -2 10 -8 22 -15 26 -6 4 -2 7 9 7
11 0 54 4 95 9 78 10 154 13 98 5z m477 -13 c4 -6 -7 -10 -27 -9 -27 0 -30 2
-13 9 27 12 33 12 40 0z m881 -2 c4 -5 -4 -8 -19 -8 -14 0 -28 4 -31 8 -6 10
40 10 50 0z m-821 -8 c-3 -5 -12 -10 -18 -10 -7 0 -6 4 3 10 19 12 23 12 15 0z
m890 0 c4 -6 -7 -10 -27 -9 -31 1 -32 1 -8 9 14 4 26 8 27 9 1 1 5 -3 8 -9z
m-1378 -6 c-3 -3 -12 -4 -19 -1 -8 3 -5 6 6 6 11 1 17 -2 13 -5z m268 -14
c-16 -4 -43 -8 -60 -8 -25 -1 -27 1 -10 8 11 5 38 8 60 8 38 0 39 -1 10 -8z
m-531 -25 c-22 -17 -34 -19 -34 -6 0 5 8 12 18 14 32 9 36 7 16 -8z m426 7 c0
-12 -67 -42 -95 -42 -14 0 -25 5 -25 11 0 8 -19 10 -60 6 -33 -3 -60 -1 -60 4
0 5 24 9 53 10 28 0 75 4 102 9 71 11 85 11 85 2z m-255 -32 c4 -6 -18 -10
-60 -10 -37 0 -64 -4 -61 -9 4 -5 -3 -7 -14 -4 -37 10 -29 19 18 22 25 1 48 4
51 7 9 8 60 4 66 -6z m5011 -37 c-3 -21 -17 -173 -31 -338 -14 -165 -35 -401
-45 -525 -11 -124 -25 -290 -31 -370 -11 -146 -15 -177 -24 -168 -3 3 4 110
15 239 11 129 18 247 14 262 -3 15 -1 34 5 41 6 7 13 60 16 117 2 57 6 124 8
149 6 69 -4 174 -15 158 -6 -8 -7 -3 -3 17 14 66 16 103 6 109 -7 5 -11 -2
-12 -16 -1 -23 -1 -23 -10 2 -6 19 -8 12 -5 -28 4 -63 -5 -57 -29 18 -17 51
-97 181 -116 188 -5 2 -7 7 -4 12 7 11 -25 71 -42 77 -12 5 -12 7 -1 14 13 9
-74 2 -102 -8 -8 -3 -33 -7 -55 -10 -22 -2 -55 -9 -74 -13 -34 -9 -57 -5 -30
4 24 9 523 104 547 105 22 1 23 -2 18 -36z m-5076 -19 c0 -2 -9 0 -20 6 -11 6
-20 13 -20 16 0 2 9 0 20 -6 11 -6 20 -13 20 -16z m-307 -78 c-19 -26 -33 -33
-33 -16 0 13 40 53 47 47 3 -3 -3 -17 -14 -31z m432 14 c3 -5 2 -10 -4 -10 -5
0 -13 5 -16 10 -3 6 -2 10 4 10 5 0 13 -4 16 -10z m-458 -167 c-2 -21 -4 -4
-4 37 0 41 2 58 4 38 2 -21 2 -55 0 -75z m6470 -155 c-3 -8 -6 -5 -6 6 -1 11
2 17 5 13 3 -3 4 -12 1 -19z m-27 -147 c0 -6 -4 -13 -10 -16 -5 -3 -10 1 -10
9 0 9 5 16 10 16 6 0 10 -4 10 -9z m-1669 -263 c47 -16 86 -76 88 -134 1 -24
-30 -29 -39 -6 -4 9 -11 8 -27 -7 l-21 -20 -6 32 c-4 17 -18 48 -31 69 l-25
37 21 14 c15 11 17 16 7 20 -26 11 0 7 33 -5z m916 -40 c-3 -7 -5 -2 -5 12 0
14 2 19 5 13 2 -7 2 -19 0 -25z m-979 -4 c16 -16 42 -89 42 -118 0 -19 -6 -21
-70 -22 -65 -2 -85 6 -60 21 21 13 -1 23 -40 18 -33 -5 -40 -3 -40 11 0 9 7
16 15 16 21 0 19 5 -11 35 -14 14 -23 29 -19 33 4 4 15 -3 25 -15 15 -19 19
-20 24 -7 3 8 2 12 -4 9 -6 -3 -10 -2 -10 3 0 12 91 38 115 33 11 -3 26 -10
33 -17z m-381 -90 c-3 -3 -12 -4 -19 -1 -8 3 -5 6 6 6 11 1 17 -2 13 -5z m188
-14 l-20 -9 20 -1 c43 -2 -15 -19 -250 -74 -385 -91 -507 -121 -920 -222 -214
-52 -514 -124 -665 -160 -151 -36 -500 -121 -775 -189 -670 -166 -789 -195
-798 -195 -4 0 -7 7 -7 15 0 8 -4 15 -10 15 -5 0 -10 -8 -10 -17 0 -9 -7 -25
-16 -35 -16 -16 -15 -18 1 -24 9 -4 20 -2 24 3 3 6 49 21 101 33 52 13 163 41
245 63 173 45 298 76 338 82 16 3 33 8 39 11 6 4 21 8 32 10 12 2 167 39 346
84 752 187 1525 373 1905 459 77 18 165 38 195 46 106 28 210 47 225 41 9 -3
15 -18 14 -38 0 -29 -1 -30 -9 -11 -9 21 -10 21 -57 8 -99 -29 -191 -53 -308
-80 -66 -15 -147 -35 -180 -45 -33 -10 -85 -24 -115 -31 -30 -7 -60 -17 -67
-22 -7 -5 -16 -6 -21 -3 -5 3 -22 1 -38 -3 -22 -7 -12 -9 43 -8 39 1 70 4 68
7 -9 14 106 40 173 40 63 0 72 -2 72 -18 0 -27 -9 -32 -37 -21 -16 6 -38 6
-60 0 -27 -8 -35 -7 -40 5 -12 31 -23 11 -23 -41 l0 -55 -40 0 -40 0 0 -40 0
-40 -40 0 -40 0 0 -50 0 -50 -40 0 c-38 0 -40 -2 -40 -30 0 -28 -2 -30 -40
-30 l-40 0 0 -40 0 -40 -40 0 -40 0 0 40 c0 29 -4 40 -15 40 -11 0 -15 -11
-15 -40 l0 -40 -145 0 -145 0 0 -79 0 -80 -47 -3 c-48 -3 -48 -3 -51 -40 -3
-32 0 -38 15 -38 15 0 20 -8 21 -40 3 -37 1 -40 -23 -40 -23 0 -25 -4 -25 -40
l0 -40 -40 0 -40 0 0 -40 c0 -29 4 -40 15 -40 8 0 15 -7 15 -15 0 -8 -4 -15
-9 -15 -5 0 -23 -12 -40 -26 -25 -21 -31 -33 -31 -65 0 -21 5 -39 10 -39 6 0
10 -19 10 -43 0 -28 -4 -44 -12 -44 -9 0 -12 14 -9 44 2 35 0 43 -14 43 -14 0
-16 -8 -14 -43 4 -42 3 -43 -23 -39 -28 4 -28 4 -28 -57 l0 -61 -40 0 c-33 0
-40 3 -40 20 0 13 -7 20 -20 20 -22 0 -23 -6 -14 -99 5 -41 11 -61 20 -61 10
0 14 -13 14 -39 0 -39 -1 -40 -32 -37 l-33 3 4 -43 c2 -28 -1 -44 -8 -44 -6 0
-11 7 -11 15 0 11 -11 15 -40 15 l-40 0 0 -40 0 -40 -40 0 c-29 0 -40 -4 -40
-15 0 -11 11 -15 40 -15 l40 0 0 -40 c0 -31 4 -40 17 -40 14 0 15 -2 4 -12
-11 -10 -14 -10 -18 0 -3 7 -22 12 -44 12 -39 0 -39 0 -39 -40 0 -22 5 -40 10
-40 6 0 10 -18 10 -40 0 -22 -4 -40 -10 -40 -5 0 -10 18 -10 40 l0 40 -40 0
c-30 0 -40 4 -40 16 0 17 -22 14 -28 -4 -2 -7 3 -12 12 -12 12 0 16 -10 16
-40 0 -38 -2 -40 -30 -40 -28 0 -30 -2 -30 -40 0 -36 -2 -40 -25 -40 -22 0
-25 -4 -25 -40 0 -36 -2 -40 -25 -40 -22 0 -25 -4 -25 -40 0 -32 -4 -40 -19
-40 -21 0 -107 -46 -118 -63 -4 -6 -6 -30 -4 -54 l3 -43 -41 0 c-40 0 -41 -1
-41 -36 0 -19 -6 -42 -14 -50 -16 -16 -86 -19 -86 -4 0 6 7 10 15 10 11 0 15
11 15 40 0 29 -4 40 -15 40 -9 0 -15 -9 -15 -25 0 -22 -4 -25 -40 -25 -33 0
-40 -4 -40 -19 0 -16 -11 -20 -77 -26 -54 -5 -78 -4 -81 4 -2 6 -30 11 -68 11
l-64 0 0 40 c0 36 3 40 25 40 16 0 25 6 25 15 0 11 -11 15 -39 15 -40 0 -40 0
-43 -42 l-3 -43 -28 28 c-15 15 -32 27 -37 27 -6 0 -10 18 -10 40 0 29 4 40
15 40 11 0 15 11 15 40 l0 40 -40 0 -40 0 0 40 c0 29 -4 40 -15 40 -12 0 -15
-16 -15 -80 0 -47 -4 -80 -10 -80 -5 0 -10 18 -10 40 0 38 -2 40 -30 40 -28 0
-30 2 -30 40 0 22 -4 40 -10 40 -5 0 -10 18 -10 40 0 22 5 40 10 40 6 0 10 18
10 40 0 36 -2 40 -25 40 -22 0 -25 4 -25 40 0 29 -4 40 -15 40 -11 0 -15 -11
-15 -40 0 -22 -4 -40 -10 -40 -5 0 -10 18 -10 40 0 22 5 40 10 40 6 0 10 33
10 80 0 79 0 80 -25 80 -22 0 -25 4 -25 40 0 29 -4 40 -15 40 -11 0 -15 11
-15 40 0 22 -4 40 -10 40 -6 0 -10 33 -10 80 l0 80 -30 0 c-22 0 -30 5 -30 18
0 10 -5 23 -11 29 -8 8 -8 19 -1 40 6 17 11 21 11 11 1 -10 8 -18 16 -18 11 0
15 11 15 41 0 36 -2 41 -20 36 -15 -4 -20 0 -20 13 0 11 -4 21 -9 24 -9 6 -11
-17 -31 -394 -11 -207 -14 -271 -29 -610 -6 -118 -14 -303 -20 -410 -5 -107
-17 -350 -26 -540 -23 -458 -40 -478 -31 -36 6 299 13 517 46 1386 28 722 40
958 49 990 14 44 14 90 1 90 -5 0 -10 -13 -10 -29 0 -17 -4 -33 -10 -36 -6 -3
-10 -1 -10 6 0 10 -3 10 -11 2 -8 -8 -15 -87 -20 -220 -5 -114 -13 -316 -19
-448 -14 -323 -38 -915 -45 -1100 -3 -82 -7 -190 -10 -240 -2 -49 -9 -250 -16
-445 -6 -195 -13 -357 -15 -359 -13 -14 -13 33 -4 270 6 145 22 572 35 949 14
377 34 942 45 1255 12 314 23 575 25 581 1 6 29 16 61 23 33 7 169 40 304 72
321 79 780 181 791 177 12 -4 -870 -224 -1074 -269 -33 -7 -53 -15 -46 -20 7
-4 17 -5 23 -3 12 5 415 102 701 170 231 55 427 96 432 90 4 -4 -610 -157
-989 -247 -120 -29 -138 -36 -138 -53 0 -18 1 -18 13 -3 18 25 888 230 1092
257 39 5 88 14 110 19 22 6 99 24 170 40 176 42 467 111 715 171 293 70 810
191 900 210 41 9 221 53 330 80 79 20 153 26 115 10z m1545 -100 c0 -22 -4
-40 -10 -40 -5 0 -10 18 -10 40 0 22 5 40 10 40 6 0 10 -18 10 -40z m-1507
-407 c-22 -318 -41 -592 -88 -1248 -14 -192 -31 -443 -39 -557 -8 -115 -18
-212 -21 -218 -12 -20 -25 -9 -25 20 0 17 5 30 11 30 8 0 10 17 6 53 -3 28 -1
86 4 127 5 41 9 92 9 112 -1 21 4 55 9 75 6 21 11 65 11 98 1 33 6 98 11 145
4 47 13 164 20 260 6 96 12 191 14 210 5 54 15 186 20 280 3 47 12 175 21 285
15 194 19 270 29 480 6 115 13 165 23 165 4 0 -3 -143 -15 -317z m-1300 270
c-7 -2 -19 -2 -25 0 -7 3 -2 5 12 5 14 0 19 -2 13 -5z m777 -103 c0 -22 -4
-40 -10 -40 -5 0 -10 18 -10 40 0 22 5 40 10 40 6 0 10 -18 10 -40z m-2330 10
c0 -3 -44 -16 -98 -28 -53 -13 -119 -30 -147 -38 -27 -8 -108 -28 -180 -45
-71 -17 -158 -37 -193 -46 -35 -8 -66 -12 -69 -9 -18 17 18 34 123 59 439 105
564 129 564 107z m-25 -51 c-36 -12 -593 -147 -636 -154 -34 -6 -40 12 -6 19
57 12 518 118 567 130 30 8 66 14 80 14 23 0 23 0 -5 -9z m3932 -21 c-3 -8 -6
-5 -6 6 -1 11 2 17 5 13 3 -3 4 -12 1 -19z m-3830 6 c-3 -3 -12 -4 -19 -1 -8
3 -5 6 6 6 11 1 17 -2 13 -5z m810 0 c-3 -3 -12 -4 -19 -1 -8 3 -5 6 6 6 11 1
17 -2 13 -5z m-848 -8 c-5 -5 -554 -140 -696 -171 -13 -3 -23 -9 -23 -14 0 -5
8 -7 18 -5 9 2 112 26 227 53 308 73 525 121 543 121 10 -1 -44 -16 -118 -35
-148 -38 -670 -165 -676 -165 -2 0 -4 13 -4 29 0 28 2 29 98 51 53 13 207 49
342 80 221 52 301 68 289 56z m758 -12 c-3 -3 -12 -4 -19 -1 -8 3 -5 6 6 6 11
1 17 -2 13 -5z m-530 -10 c-3 -3 -12 -4 -19 -1 -8 3 -5 6 6 6 11 1 17 -2 13
-5z m-52 -14 c-22 -8 -98 -27 -318 -80 -70 -17 -221 -53 -335 -80 -114 -28
-217 -53 -229 -55 -27 -6 -31 11 -5 19 33 9 529 125 667 156 77 17 154 35 170
39 17 5 39 9 50 9 20 1 20 1 0 -8z m462 -6 c-3 -3 -12 -4 -19 -1 -8 3 -5 6 6
6 11 1 17 -2 13 -5z m-368 -8 c-4 -4 -670 -170 -809 -201 -41 -10 -97 -24
-124 -31 -61 -17 -66 -17 -66 -1 0 7 59 26 163 49 89 21 250 58 357 84 370 88
493 113 479 100z m251 -16 c-8 -5 -24 -9 -35 -9 -16 1 -16 2 5 9 35 11 48 11
30 0z m3001 -267 c-12 -136 -26 -300 -31 -363 -11 -126 -36 -442 -50 -643 -5
-70 -12 -132 -15 -137 -4 -6 -14 -10 -22 -10 -24 0 -535 -170 -552 -184 -12
-9 -13 -6 -8 20 3 17 9 77 13 133 4 56 10 103 13 105 3 2 5 -19 3 -48 -2 -29
-2 -66 0 -82 l3 -29 31 31 c16 17 39 33 50 37 101 32 205 75 193 80 -10 4 -9
6 4 6 11 1 30 10 45 21 17 14 28 17 32 10 10 -17 79 -1 102 22 14 14 28 18 48
14 19 -3 30 -1 34 9 8 22 17 101 21 185 1 41 4 75 4 75 1 0 4 47 7 105 2 58 9
121 14 140 5 19 12 94 15 165 4 72 11 155 16 185 5 30 14 120 19 200 11 160
22 244 28 218 2 -9 -6 -129 -17 -265z m-4581 160 c0 -53 -8 -282 -55 -1668 -8
-242 -19 -577 -25 -745 -5 -168 -13 -343 -16 -389 l-6 -84 -30 31 c-36 36 -36
-54 -8 807 11 336 24 765 30 955 6 190 15 489 20 665 5 176 10 352 10 392 l0
72 33 10 c17 5 35 10 40 10 4 1 7 -25 7 -56z m4027 -75 c-3 -8 -6 -5 -6 6 -1
11 2 17 5 13 3 -3 4 -12 1 -19z m0 -40 c-3 -8 -6 -5 -6 6 -1 11 2 17 5 13 3
-3 4 -12 1 -19z m-1397 -128 c0 -22 -4 -40 -10 -40 -5 0 -10 18 -10 40 0 22 5
40 10 40 6 0 10 -18 10 -40z m1377 -102 c-2 -13 -4 -3 -4 22 0 25 2 35 4 23 2
-13 2 -33 0 -45z m-4400 -90 c-3 -7 -5 -2 -5 12 0 14 2 19 5 13 2 -7 2 -19 0
-25z m4390 -50 c-2 -13 -4 -3 -4 22 0 25 2 35 4 23 2 -13 2 -33 0 -45z m-10
-75 c-3 -10 -5 -4 -5 12 0 17 2 24 5 18 2 -7 2 -21 0 -30z m-10 -135 c-2 -13
-4 -5 -4 17 -1 22 1 32 4 23 2 -10 2 -28 0 -40z m-4380 -60 c-3 -7 -5 -2 -5
12 0 14 2 19 5 13 2 -7 2 -19 0 -25z m0 -70 c-2 -13 -4 -5 -4 17 -1 22 1 32 4
23 2 -10 2 -28 0 -40z m4370 -5 c-3 -10 -5 -2 -5 17 0 19 2 27 5 18 2 -10 2
-26 0 -35z m-4370 -65 c-3 -7 -5 -2 -5 12 0 14 2 19 5 13 2 -7 2 -19 0 -25z
m4360 -60 c-2 -13 -4 -5 -4 17 -1 22 1 32 4 23 2 -10 2 -28 0 -40z m-1727 -68
c0 -17 -7 -20 -50 -20 -43 0 -50 3 -50 20 0 17 7 20 50 20 43 0 50 -3 50 -20z
m-2643 -47 c-3 -10 -5 -2 -5 17 0 19 2 27 5 18 2 -10 2 -26 0 -35z m4360 0
c-3 -10 -5 -4 -5 12 0 17 2 24 5 18 2 -7 2 -21 0 -30z m-5017 -53 c0 -22 -4
-40 -10 -40 -5 0 -10 18 -10 40 0 22 5 40 10 40 6 0 10 -18 10 -40z m657 -32
c-3 -7 -5 -2 -5 12 0 14 2 19 5 13 2 -7 2 -19 0 -25z m860 0 c-3 -7 -5 -2 -5
12 0 14 2 19 5 13 2 -7 2 -19 0 -25z m3490 -35 c-3 -10 -5 -2 -5 17 0 19 2 27
5 18 2 -10 2 -26 0 -35z m840 -165 c-2 -18 -4 -6 -4 27 0 33 2 48 4 33 2 -15
2 -42 0 -60z m-4250 -30 c-2 -13 -4 -3 -4 22 0 25 2 35 4 23 2 -13 2 -33 0
-45z m3943 -65 c-11 -17 -11 -17 -6 0 3 10 7 37 8 60 l1 42 4 -42 c2 -24 -1
-51 -7 -60z m-4893 0 c-3 -10 -5 -4 -5 12 0 17 2 24 5 18 2 -7 2 -21 0 -30z
m5190 5 c-3 -8 -6 -5 -6 6 -1 11 2 17 5 13 3 -3 4 -12 1 -19z m-300 -90 c-2
-13 -4 -5 -4 17 -1 22 1 32 4 23 2 -10 2 -28 0 -40z m290 -40 c-3 -7 -5 -2 -5
12 0 14 2 19 5 13 2 -7 2 -19 0 -25z m-300 -55 c-3 -10 -5 -4 -5 12 0 17 2 24
5 18 2 -7 2 -21 0 -30z m-282 -71 c-3 -3 -11 0 -18 7 -9 10 -8 11 6 5 10 -3
15 -9 12 -12z m-4608 -94 c-3 -7 -5 -2 -5 12 0 14 2 19 5 13 2 -7 2 -19 0 -25z
m-467 7 c0 -8 -4 -15 -10 -15 -5 0 -7 7 -4 15 4 8 8 15 10 15 2 0 4 -7 4 -15z
m5250 -31 c0 -2 -9 0 -20 6 -11 6 -20 13 -20 16 0 2 9 0 20 -6 11 -6 20 -13
20 -16z m-643 -66 c-3 -8 -6 -5 -6 6 -1 11 2 17 5 13 3 -3 4 -12 1 -19z m733
12 c0 -5 -2 -10 -4 -10 -3 0 -8 5 -11 10 -3 6 -1 10 4 10 6 0 11 -4 11 -10z
m-335 -120 c3 -6 -1 -7 -9 -4 -18 7 -21 14 -7 14 6 0 13 -4 16 -10z m84 -57
c2 -2 0 -3 -5 -3 -5 0 -22 12 -39 26 l-30 26 35 -23 c19 -12 37 -24 39 -26z
m-2939 -33 c0 -5 -18 -10 -40 -10 -22 0 -40 5 -40 10 0 6 18 10 40 10 22 0 40
-4 40 -10z m-17 -37 c-13 -2 -33 -2 -45 0 -13 2 -3 4 22 4 25 0 35 -2 23 -4z
m1897 -63 c-8 -5 -19 -10 -25 -10 -5 0 -3 5 5 10 8 5 20 10 25 10 6 0 3 -5 -5
-10z m2533 -286 c11 -11 -3 -24 -18 -18 -8 4 -12 10 -9 15 6 11 18 12 27 3z
m1407 -84 c0 -5 -4 -10 -10 -10 -5 0 -10 5 -10 10 0 6 5 10 10 10 6 0 10 -4
10 -10z m-143 -56 c-3 -3 -12 -4 -19 -1 -8 3 -5 6 6 6 11 1 17 -2 13 -5z
m-5117 -44 c-8 -5 -19 -10 -25 -10 -5 0 -3 5 5 10 8 5 20 10 25 10 6 0 3 -5
-5 -10z m-40 -14 c0 -2 -7 -7 -16 -10 -8 -3 -12 -2 -9 4 6 10 25 14 25 6z
m-3177 -13 c-13 -2 -33 -2 -45 0 -13 2 -3 4 22 4 25 0 35 -2 23 -4z m6981
-128 c-4 -8 -11 -12 -16 -9 -6 4 -5 10 3 15 19 12 19 11 13 -6z m-6026 -45 c4
0 43 11 87 25 78 24 145 32 145 18 0 -10 -75 -63 -89 -63 -5 0 -25 -9 -44 -20
-18 -11 -45 -21 -60 -22 -15 -1 -29 -8 -31 -15 -3 -7 -13 -13 -22 -13 -14 0
-16 8 -10 53 3 28 7 61 7 72 1 13 4 10 6 -7 2 -16 7 -28 11 -28z m7297 40 c4
-6 -5 -10 -19 -10 -14 0 -26 5 -26 10 0 6 9 10 19 10 11 0 23 -4 26 -10z
m-135 -39 c0 -6 -4 -13 -10 -16 -5 -3 -10 1 -10 9 0 9 5 16 10 16 6 0 10 -4
10 -9z m-1140 -31 c0 -5 -4 -10 -10 -10 -5 0 -10 5 -10 10 0 6 5 10 10 10 6 0
10 -4 10 -10z m-6995 -130 c-3 -5 -15 -10 -26 -10 -10 0 -19 5 -19 10 0 6 12
10 26 10 14 0 23 -4 19 -10z m8042 -16 c-3 -3 -12 -4 -19 -1 -8 3 -5 6 6 6 11
1 17 -2 13 -5z m-910 -30 c-9 -9 -28 6 -21 18 4 6 10 6 17 -1 6 -6 8 -13 4
-17z m183 -150 c0 -17 -22 -14 -28 4 -2 7 3 12 12 12 9 0 16 -7 16 -16z m316
-71 c-10 -10 -19 5 -10 18 6 11 8 11 12 0 2 -7 1 -15 -2 -18z m-317 -8 c-2 -2
-17 0 -34 3 l-30 6 30 6 c26 5 45 -4 34 -15z m144 1 c18 -14 17 -14 -2 -21
-12 -3 -30 -3 -41 0 -16 5 -20 2 -20 -14 0 -25 -15 -28 -24 -5 -4 9 -5 17 -4
18 2 1 17 8 33 18 37 20 36 20 58 4z m97 -36 c0 -5 -12 -10 -27 -10 -14 0 -34
-7 -43 -15 -19 -17 -71 -7 -78 14 -3 10 2 12 19 8 13 -3 31 -2 39 3 20 13 90
13 90 0z m46 -96 c8 3 20 8 27 11 8 4 12 -5 11 -27 -2 -54 -3 -58 -21 -58 -17
1 -17 1 0 11 37 22 3 59 -41 45 -13 -5 -22 1 -30 18 -14 32 -5 39 20 14 11
-11 26 -17 34 -14z m-86 12 c0 -3 -4 -8 -10 -11 -5 -3 -10 -1 -10 4 0 6 5 11
10 11 6 0 10 -2 10 -4z m215 -66 c3 -5 1 -10 -4 -10 -6 0 -11 5 -11 10 0 6 2
10 4 10 3 0 8 -4 11 -10z m232 -52 c-3 -8 -6 -5 -6 6 -1 11 2 17 5 13 3 -3 4
-12 1 -19z m-436 -143 c-1 -15 -24 -12 -29 3 -3 9 2 13 12 10 10 -1 17 -7 17
-13z m-10334 -107 c-3 -8 -6 -5 -6 6 -1 11 2 17 5 13 3 -3 4 -12 1 -19z
m10748 2 c3 -5 2 -10 -4 -10 -5 0 -13 5 -16 10 -3 6 -2 10 4 10 5 0 13 -4 16
-10z m-7905 -326 c0 -6 -65 -34 -77 -33 -4 0 10 9 32 19 48 22 45 21 45 14z
m-120 -49 c-46 -18 -64 -17 -25 0 17 8 37 14 45 14 8 0 -1 -7 -20 -14z m-65
-25 c-3 -5 -11 -10 -16 -10 -6 0 -7 5 -4 10 3 6 11 10 16 10 6 0 7 -4 4 -10z
m-2298 -6 c-3 -3 -12 -4 -19 -1 -8 3 -5 6 6 6 11 1 17 -2 13 -5z m2193 -34
c-20 -13 -33 -13 -25 0 3 6 14 10 23 10 15 0 15 -2 2 -10z m-85 -31 c-27 -11
-102 -38 -165 -60 -63 -22 -130 -47 -148 -56 -19 -8 -36 -12 -39 -9 -5 4 61
36 76 36 7 0 187 66 216 79 31 15 79 29 95 30 8 0 -7 -9 -35 -20z m-2577 -54
c-3 -3 -9 2 -12 12 -6 14 -5 15 5 6 7 -7 10 -15 7 -18z m2212 -79 c0 -2 -13
-9 -30 -15 -35 -12 -41 -5 -7 9 25 10 37 12 37 6z m9060 -6 c0 -5 -5 -10 -11
-10 -5 0 -7 5 -4 10 3 6 8 10 11 10 2 0 4 -4 4 -10z m-9141 -25 c-8 -8 -199
-75 -212 -74 -7 0 17 11 53 25 36 14 72 27 80 31 8 3 24 8 34 10 11 2 22 6 25
8 2 3 9 5 14 5 6 0 8 -2 6 -5z m-261 -94 c-20 -10 -49 -21 -65 -24 -18 -4 -10
2 22 17 28 14 57 25 65 25 8 0 -1 -8 -22 -18z m-98 -35 c0 -2 -13 -9 -30 -15
-16 -5 -30 -6 -30 -1 0 7 10 11 53 19 4 0 7 -1 7 -3z m-115 -46 c-36 -15 -52
-17 -60 -8 -7 8 -7 9 1 5 7 -4 25 0 40 8 16 8 38 15 49 14 11 0 -2 -9 -30 -19z
m-75 -30 c-8 -5 -22 -9 -30 -9 -10 0 -8 3 5 9 27 12 43 12 25 0z m-53 -16 c-9
-10 -177 -61 -177 -55 0 5 10 11 23 14 45 11 99 35 88 38 -7 3 6 4 28 4 22 0
39 0 38 -1z m-197 -71 c-8 -3 -43 -16 -77 -29 -35 -13 -63 -20 -63 -15 0 8
116 49 140 49 13 0 13 0 0 -5z m-155 -52 c-6 -5 -55 -25 -110 -44 -145 -50
-144 -50 -100 -28 65 31 108 48 142 56 18 3 35 11 38 16 4 5 14 9 23 9 10 0
12 -3 7 -9z m-380 -140 c-71 -27 -143 -51 -160 -54 -36 -8 -22 -1 84 38 51 19
69 30 60 36 -9 6 -2 7 17 3 20 -4 42 0 60 10 16 8 38 15 49 15 11 0 -38 -22
-110 -48z m-210 -71 c-65 -27 -157 -60 -170 -60 -8 0 -15 5 -15 11 0 6 6 9 14
6 8 -3 20 0 26 8 6 7 19 14 28 13 9 0 37 7 62 15 48 17 89 22 55 7z"/>
<path d="M9370 14891 c32 -6 33 -7 11 -13 -26 -7 -24 -31 2 -36 11 -2 20 6 26
20 4 13 12 22 17 20 5 -2 10 1 12 7 2 7 -16 11 -50 10 -47 -1 -49 -2 -18 -8z"/>
<path d="M8051 14814 c0 -11 3 -14 6 -6 3 7 2 16 -1 19 -3 4 -6 -2 -5 -13z"/>
<path d="M9278 14773 c-12 -13 -15 -29 -11 -58 2 -22 1 -62 -4 -90 -13 -74 -8
-85 35 -84 l37 1 -33 9 -33 10 7 62 c8 76 22 95 61 81 23 -8 27 -14 25 -39 -2
-17 -8 -35 -13 -41 -5 -6 -6 -14 -2 -18 4 -3 -2 -13 -13 -21 -18 -14 -18 -14
4 -15 16 0 22 -5 20 -17 -2 -10 -7 -21 -13 -25 -5 -4 7 -8 28 -8 34 0 38 3 37
23 -1 12 -1 24 0 27 1 3 3 32 4 65 2 33 6 72 10 86 9 30 -7 47 -50 53 -16 2
-40 7 -54 10 -19 5 -31 2 -42 -11z m48 -22 c-10 -16 -36 -13 -36 3 0 17 21 27
34 16 4 -5 5 -13 2 -19z"/>
<path d="M8880 14260 l-85 -6 90 -1 c50 -1 99 2 110 7 23 10 21 10 -115 0z"/>
<path d="M8000 14238 c0 -14 114 -13 245 2 59 6 46 8 -87 9 -121 1 -158 -2
-158 -11z"/>
<path d="M8388 14243 c7 -3 16 -2 19 1 4 3 -2 6 -13 5 -11 0 -14 -3 -6 -6z"/>
<path d="M7966 13760 c-7 -19 -25 -224 -22 -245 4 -27 21 -21 24 9 3 23 6 26
13 15 7 -10 9 -2 7 28 -2 23 -1 41 2 41 23 -2 30 6 30 31 0 34 -16 50 -23 24
-3 -10 -5 5 -6 32 -1 55 -16 91 -25 65z"/>
<path d="M9041 13694 c0 -11 3 -14 6 -6 3 7 2 16 -1 19 -3 4 -6 -2 -5 -13z"/>
<path d="M9033 13600 c0 -30 2 -43 4 -27 2 15 2 39 0 55 -2 15 -4 2 -4 -28z"/>
<path d="M7920 13280 c0 -6 48 -9 128 -8 115 1 120 2 57 8 -107 11 -185 11
-185 0z"/>
<path d="M8668 12473 c6 -2 18 -2 25 0 6 3 1 5 -13 5 -14 0 -19 -2 -12 -5z"/>
<path d="M8840 12450 c-9 -6 -10 -10 -3 -10 6 0 15 5 18 10 8 12 4 12 -15 0z"/>
<path d="M8750 12410 c-8 -5 -10 -10 -5 -10 6 0 17 5 25 10 8 5 11 10 5 10 -5
0 -17 -5 -25 -10z"/>
<path d="M7760 12359 c0 -5 5 -7 10 -4 6 3 10 8 10 11 0 2 -4 4 -10 4 -5 0
-10 -5 -10 -11z"/>
<path d="M8010 12330 c0 -5 7 -10 16 -10 8 0 12 5 9 10 -3 6 -10 10 -16 10 -5
0 -9 -4 -9 -10z"/>
<path d="M7743 12070 c30 -9 86 -13 127 -10 33 3 -63 18 -115 18 -37 0 -38 0
-12 -8z"/>
<path d="M7420 12050 c0 -5 5 -10 11 -10 5 0 7 5 4 10 -3 6 -8 10 -11 10 -2 0
-4 -4 -4 -10z"/>
<path d="M7951 11980 c-7 -23 -10 -44 -8 -47 7 -6 29 65 25 79 -2 6 -10 -8
-17 -32z"/>
<path d="M7725 11999 c-11 -17 1 -21 15 -4 8 9 8 15 2 15 -6 0 -14 -5 -17 -11z"/>
<path d="M7393 11890 c-6 -17 -8 -30 -3 -30 8 0 24 50 18 56 -2 2 -9 -10 -15
-26z"/>
<path d="M7317 11703 c-6 -160 -5 -184 9 -170 11 11 17 337 7 337 -6 0 -13
-71 -16 -167z"/>
<path d="M7582 11410 c0 -14 2 -19 5 -12 2 6 2 18 0 25 -3 6 -5 1 -5 -13z"/>
<path d="M6761 12434 c0 -11 3 -14 6 -6 3 7 2 16 -1 19 -3 4 -6 -2 -5 -13z"/>
<path d="M7585 9800 c-9 -16 -13 -30 -11 -30 3 0 12 14 21 30 9 17 13 30 11
30 -3 0 -12 -13 -21 -30z"/>
<path d="M8819 8091 c-36 -3 -73 -12 -82 -19 -10 -9 -17 -10 -22 -2 -3 5 -16
10 -28 9 -21 0 -21 -1 -2 -10 17 -7 16 -8 -10 -7 -63 2 -106 -2 -100 -11 3 -6
-9 -7 -30 -4 -24 4 -35 2 -35 -7 0 -8 -8 -10 -24 -6 -13 3 -35 2 -47 -2 -21
-8 -21 -9 9 -15 18 -4 44 -2 60 4 15 6 42 11 60 10 21 0 30 3 26 10 -5 8 9 9
44 4 33 -4 52 -3 57 5 4 6 15 8 26 5 11 -4 19 -2 19 4 0 7 22 11 54 11 67 0
117 10 110 21 -3 5 -8 8 -12 7 -4 0 -37 -4 -73 -7z"/>
<path d="M8280 8050 c-12 -8 -9 -10 13 -10 15 0 27 5 27 10 0 13 -20 13 -40 0z"/>
<path d="M8183 8043 c-13 -2 -23 -9 -23 -15 0 -5 7 -7 16 -4 9 3 27 6 40 6 13
0 24 5 24 10 0 10 -16 11 -57 3z"/>
<path d="M8365 8020 c-3 -5 -22 -10 -41 -10 -19 0 -34 -4 -34 -9 0 -5 -26 -8
-57 -7 -68 1 -106 -10 -83 -24 8 -6 22 -9 30 -9 10 0 8 3 -5 9 -19 8 72 16
150 12 25 -1 26 1 10 7 -16 7 -12 10 23 15 23 4 42 12 42 17 0 12 -27 12 -35
-1z"/>
<path d="M7960 8010 c-12 -8 -9 -10 13 -10 27 0 38 -22 17 -35 -6 -4 -7 -11
-4 -17 7 -11 29 28 26 45 -1 4 3 7 8 7 6 0 10 5 10 10 0 13 -50 13 -70 0z"/>
<path d="M8063 8013 c9 -2 23 -2 30 0 6 3 -1 5 -18 5 -16 0 -22 -2 -12 -5z"/>
<path d="M8108 7993 c7 -3 16 -2 19 1 4 3 -2 6 -13 5 -11 0 -14 -3 -6 -6z"/>
<path d="M7737 7968 c-7 -4 -33 -8 -59 -8 -27 0 -48 -4 -48 -9 0 -14 91 -24
103 -12 6 6 33 11 59 11 37 0 48 4 48 15 0 12 -10 15 -46 13 -25 -2 -51 -6
-57 -10z"/>
<path d="M8088 7973 c6 -2 10 -9 6 -14 -3 -5 4 -9 15 -9 12 0 21 4 21 9 0 10
-25 21 -43 20 -8 0 -8 -2 1 -6z"/>
<path d="M6636 7941 c-4 -5 3 -7 14 -4 23 6 26 13 6 13 -8 0 -17 -4 -20 -9z"/>
<path d="M7545 7943 c-11 -3 -24 -9 -29 -14 -6 -5 -20 -9 -33 -9 -13 0 -23 -4
-23 -10 0 -13 37 -13 45 -1 3 6 26 13 50 17 25 3 45 10 45 15 0 9 -21 10 -55
2z"/>
<path d="M7826 7930 c-11 -11 -15 -20 -9 -20 6 0 20 -3 30 -6 15 -5 15 -4 3 5
-12 9 -10 11 13 11 18 0 27 4 25 13 -7 20 -41 18 -62 -3z"/>
<path d="M6818 7923 c7 -3 16 -2 19 1 4 3 -2 6 -13 5 -11 0 -14 -3 -6 -6z"/>
<path d="M6773 7903 c15 -2 39 -2 55 0 15 2 2 4 -28 4 -30 0 -43 -2 -27 -4z"/>
<path d="M7520 7891 c0 -5 9 -7 20 -4 11 3 20 7 20 9 0 2 -9 4 -20 4 -11 0
-20 -4 -20 -9z"/>
<path d="M6798 7873 c12 -2 30 -2 40 0 9 3 -1 5 -23 4 -22 0 -30 -2 -17 -4z"/>
<path d="M6408 7833 c6 -2 18 -2 25 0 6 3 1 5 -13 5 -14 0 -19 -2 -12 -5z"/>
<path d="M6795 7800 c3 -5 11 -10 16 -10 6 0 7 5 4 10 -3 6 -11 10 -16 10 -6
0 -7 -4 -4 -10z"/>
<path d="M5785 7759 c-13 -20 5 -22 53 -7 l47 16 -47 1 c-26 1 -50 -4 -53 -10z"/>
<path d="M5660 7730 c-20 -6 -21 -8 -5 -8 11 0 31 4 45 8 20 6 21 8 5 8 -11 0
-31 -4 -45 -8z"/>
<path d="M6713 7733 c9 -2 23 -2 30 0 6 3 -1 5 -18 5 -16 0 -22 -2 -12 -5z"/>
<path d="M5373 7713 c-24 -2 -43 -9 -43 -15 0 -7 19 -9 58 -5 36 4 50 3 37 -3
-31 -13 -4 -11 38 3 66 23 32 31 -90 20z"/>
<path d="M5140 7659 c-81 -22 -94 -28 -55 -24 73 7 233 32 215 34 -13 1 -13 2
0 11 30 19 -54 8 -160 -21z"/>
<path d="M4850 7640 c-12 -8 -11 -10 5 -9 11 1 34 5 50 9 l30 8 -35 1 c-19 0
-42 -4 -50 -9z"/>
<path d="M4924 7609 c-3 -5 15 -9 40 -9 25 0 46 4 46 9 0 12 -78 12 -86 0z"/>
<path d="M5188 7603 c-20 -5 -24 -23 -5 -23 6 0 21 7 31 15 20 15 11 18 -26 8z"/>
<path d="M5640 7600 c-12 -8 -9 -10 13 -10 15 0 27 5 27 10 0 13 -20 13 -40 0z"/>
<path d="M5563 7593 c9 -2 23 -2 30 0 6 3 -1 5 -18 5 -16 0 -22 -2 -12 -5z"/>
<path d="M4530 7570 c-12 -8 -11 -10 8 -10 12 0 22 5 22 10 0 13 -11 13 -30 0z"/>
<path d="M5280 7550 c0 -13 11 -13 30 0 12 8 11 10 -7 10 -13 0 -23 -4 -23
-10z"/>
<path d="M4690 7521 c-14 -4 -20 -10 -14 -14 6 -3 20 0 30 8 21 16 20 16 -16
6z"/>
<path d="M4763 7523 c9 -2 23 -2 30 0 6 3 -1 5 -18 5 -16 0 -22 -2 -12 -5z"/>
<path d="M4393 7505 c0 -7 8 -10 19 -7 10 2 18 6 18 7 0 1 -8 5 -18 7 -11 3
-19 0 -19 -7z"/>
<path d="M4615 7510 l-30 -6 35 -6 c38 -6 49 -3 34 10 -5 5 -22 6 -39 2z"/>
<path d="M4465 7488 c-27 -5 -60 -9 -73 -10 -17 0 -20 -4 -12 -13 8 -9 21 -10
48 -4 20 6 61 13 89 18 29 4 56 11 60 14 9 9 -51 7 -112 -5z"/>
<path d="M4870 7470 c-10 -7 1 -8 35 -4 28 4 52 8 54 10 10 9 -75 3 -89 -6z"/>
<path d="M4495 7410 c-3 -5 -2 -10 4 -10 5 0 18 -3 28 -7 16 -6 16 -5 4 10
-15 19 -27 22 -36 7z"/>
<path d="M9041 7443 c0 -4 4 -17 9 -28 8 -19 9 -19 9 2 1 12 -3 25 -9 28 -5 3
-10 3 -9 -2z"/>
<path d="M9088 7383 c-2 -10 -1 -31 3 -48 6 -26 7 -23 8 18 1 48 -3 61 -11 30z"/>
<path d="M9061 6784 c0 -11 3 -14 6 -6 3 7 2 16 -1 19 -3 4 -6 -2 -5 -13z"/>
<path d="M8218 6683 c7 -3 16 -2 19 1 4 3 -2 6 -13 5 -11 0 -14 -3 -6 -6z"/>
<path d="M7728 6433 c6 -2 18 -2 25 0 6 3 1 5 -13 5 -14 0 -19 -2 -12 -5z"/>
<path d="M7628 6403 c6 -2 18 -2 25 0 6 3 1 5 -13 5 -14 0 -19 -2 -12 -5z"/>
<path d="M7360 6370 c0 -5 7 -7 15 -4 8 4 15 8 15 10 0 2 -7 4 -15 4 -8 0 -15
-4 -15 -10z"/>
<path d="M7280 6363 c-14 -3 -29 -9 -34 -14 -16 -15 38 -11 75 6 30 13 31 14
9 13 -14 0 -36 -3 -50 -5z"/>
<path d="M7355 6340 c-4 -6 6 -10 22 -10 22 0 25 2 13 10 -19 12 -27 12 -35 0z"/>
<path d="M7155 6330 c-7 -12 19 -12 55 0 22 7 21 8 -12 9 -20 1 -40 -3 -43 -9z"/>
<path d="M7075 6310 c-3 -5 -18 -11 -33 -11 -20 -1 -22 -3 -7 -6 12 -2 36 3
55 11 28 12 30 15 13 16 -12 0 -25 -4 -28 -10z"/>
<path d="M6960 6280 c-25 -8 -25 -8 5 -10 17 -1 35 -3 40 -5 6 -1 16 -3 23 -3
7 -1 10 -7 6 -14 -4 -7 -3 -8 4 -4 17 10 15 23 -5 29 -10 2 -25 7 -33 10 -8 3
-26 1 -40 -3z"/>
<path d="M7060 6259 c0 -4 7 -9 15 -13 9 -3 15 0 15 8 0 7 -7 13 -15 13 -8 0
-15 -4 -15 -8z"/>
<path d="M6958 6243 c6 -2 18 -2 25 0 6 3 1 5 -13 5 -14 0 -19 -2 -12 -5z"/>
<path d="M6705 6220 c-3 -5 -1 -10 4 -10 6 0 11 5 11 10 0 6 -2 10 -4 10 -3 0
-8 -4 -11 -10z"/>
<path d="M6738 6213 c6 -2 18 -2 25 0 6 3 1 5 -13 5 -14 0 -19 -2 -12 -5z"/>
<path d="M6658 6203 c6 -2 18 -2 25 0 6 3 1 5 -13 5 -14 0 -19 -2 -12 -5z"/>
<path d="M6605 6190 c-8 -13 5 -13 25 0 13 8 13 10 -2 10 -9 0 -20 -4 -23 -10z"/>
<path d="M6700 6190 c0 -5 5 -10 10 -10 6 0 10 5 10 10 0 6 -4 10 -10 10 -5 0
-10 -4 -10 -10z"/>
<path d="M6520 6170 c-18 -12 -2 -12 25 0 13 6 15 9 5 9 -8 0 -22 -4 -30 -9z"/>
<path d="M6378 6133 c7 -3 16 -2 19 1 4 3 -2 6 -13 5 -11 0 -14 -3 -6 -6z"/>
<path d="M6308 6113 c7 -3 16 -2 19 1 4 3 -2 6 -13 5 -11 0 -14 -3 -6 -6z"/>
<path d="M6130 6080 c-12 -8 -11 -10 8 -10 12 0 22 5 22 10 0 13 -11 13 -30 0z"/>
<path d="M6428 6083 c7 -3 16 -2 19 1 4 3 -2 6 -13 5 -11 0 -14 -3 -6 -6z"/>
<path d="M6880 6030 c0 -5 18 -10 40 -10 22 0 40 5 40 10 0 6 -18 10 -40 10
-22 0 -40 -4 -40 -10z"/>
<path d="M6680 5880 c-20 -16 -22 -20 -7 -20 9 0 17 -4 17 -10 0 -5 7 -10 15
-10 10 0 15 10 15 30 0 35 -6 37 -40 10z"/>
<path d="M6800 5801 c0 -23 5 -41 10 -41 6 0 10 15 10 34 0 19 -4 38 -10 41
-6 4 -10 -10 -10 -34z"/>
<path d="M4861 5664 c0 -11 3 -14 6 -6 3 7 2 16 -1 19 -3 4 -6 -2 -5 -13z"/>
<path d="M6713 5640 c0 -25 2 -35 4 -22 2 12 2 32 0 45 -2 12 -4 2 -4 -23z"/>
<path d="M4851 5534 c0 -11 3 -14 6 -6 3 7 2 16 -1 19 -3 4 -6 -2 -5 -13z"/>
<path d="M4862 5380 c0 -14 2 -19 5 -12 2 6 2 18 0 25 -3 6 -5 1 -5 -13z"/>
<path d="M6130 4575 c-10 -13 -9 -15 9 -15 12 0 21 6 21 15 0 8 -4 15 -9 15
-5 0 -14 -7 -21 -15z"/>
<path d="M7218 20381 c-31 -22 -63 -41 -70 -44 -7 -2 -10 -8 -6 -12 10 -10 93
34 125 67 37 39 19 35 -49 -11z"/>
<path d="M7275 20374 c-16 -14 -48 -34 -70 -45 -22 -10 -33 -19 -25 -20 8 0
25 -2 37 -3 12 -1 21 2 20 8 -1 6 6 10 15 10 10 -1 16 1 14 5 -3 4 9 16 25 26
16 11 31 26 34 33 7 20 -18 13 -50 -14z"/>
<path d="M9513 20200 c0 -25 2 -35 4 -22 2 12 2 32 0 45 -2 12 -4 2 -4 -23z"/>
<path d="M1 19264 c0 -11 3 -14 6 -6 3 7 2 16 -1 19 -3 4 -6 -2 -5 -13z"/>
<path d="M9280 15229 c0 -6 -7 -17 -15 -25 -8 -9 -15 -11 -15 -6 0 11 -56 5
-79 -8 -9 -5 -1 -10 25 -15 l39 -8 -35 -13 -35 -14 41 4 c22 2 47 -2 56 -8 9
-7 40 -13 69 -15 29 -1 60 -6 68 -10 34 -18 97 -21 117 -6 16 12 17 17 6 35
-7 11 -11 24 -8 28 3 5 2 13 -2 19 -8 13 -191 21 -210 9 -7 -4 -16 -5 -20 -1
-4 4 -1 10 6 12 14 5 16 33 2 33 -5 0 -10 -5 -10 -11z m220 -49 c13 -8 13 -10
-2 -10 -9 0 -20 5 -23 10 -8 13 5 13 25 0z"/>
<path d="M9090 15200 l-25 -8 28 -1 c15 -1 27 4 27 9 0 6 -1 10 -2 9 -2 -1
-14 -5 -28 -9z"/>
<path d="M9067 15173 c-3 -5 27 -8 67 -9 48 0 61 2 41 7 -42 9 -103 11 -108 2z"/>
<path d="M9540 15100 c0 -5 7 -7 15 -4 8 4 15 8 15 10 0 2 -7 4 -15 4 -8 0
-15 -4 -15 -10z"/>
<path d="M9592 15101 c-11 -7 -10 -9 3 -14 9 -4 14 -3 10 2 -3 5 1 12 7 14 7
3 9 6 3 6 -5 0 -16 -3 -23 -8z"/>
<path d="M9587 12953 c-3 -5 -6 -40 -6 -77 0 -38 -5 -74 -10 -79 -18 -18 -14
-77 5 -77 13 0 15 8 12 40 -2 22 -1 40 3 40 11 0 21 142 11 152 -6 6 -12 6
-15 1z"/>
<path d="M7121 12934 c0 -11 3 -14 6 -6 3 7 2 16 -1 19 -3 4 -6 -2 -5 -13z"/>
<path d="M9593 12675 c0 -22 2 -30 4 -17 2 12 2 30 0 40 -3 9 -5 -1 -4 -23z"/>
<path d="M7080 12649 c0 -11 4 -18 10 -14 5 3 7 12 3 20 -7 21 -13 19 -13 -6z"/>
<path d="M9563 12600 c0 -25 2 -35 4 -22 2 12 2 32 0 45 -2 12 -4 2 -4 -23z"/>
<path d="M7081 12564 c0 -11 3 -14 6 -6 3 7 2 16 -1 19 -3 4 -6 -2 -5 -13z"/>
<path d="M7092 12500 c-1 -25 3 -63 7 -85 l9 -40 0 35 c0 19 -3 58 -8 85 l-7
50 -1 -45z"/>
<path d="M7052 12455 c0 -16 2 -22 5 -12 2 9 2 23 0 30 -3 6 -5 -1 -5 -18z"/>
<path d="M7000 12420 c0 -5 5 -10 10 -10 6 0 10 5 10 10 0 6 -4 10 -10 10 -5
0 -10 -4 -10 -10z"/>
<path d="M7117 12294 c-6 -7 0 -60 15 -119 10 -38 10 -39 22 -16 10 19 10 31
-1 63 -7 22 -11 43 -8 48 6 10 -19 32 -28 24z"/>
<path d="M9502 12260 c0 -14 2 -19 5 -12 2 6 2 18 0 25 -3 6 -5 1 -5 -13z"/>
<path d="M7132 12005 c0 -16 2 -22 5 -12 2 9 2 23 0 30 -3 6 -5 -1 -5 -18z"/>
<path d="M6942 11990 c0 -19 2 -27 5 -17 2 9 2 25 0 35 -3 9 -5 1 -5 -18z"/>
<path d="M7151 11885 c0 -34 23 -153 33 -162 11 -12 5 42 -13 117 -12 47 -19
64 -20 45z"/>
<path d="M6952 11870 c0 -19 2 -27 5 -17 2 9 2 25 0 35 -3 9 -5 1 -5 -18z"/>
<path d="M10561 11184 c0 -11 3 -14 6 -6 3 7 2 16 -1 19 -3 4 -6 -2 -5 -13z"/>
<path d="M7988 10943 c7 -3 16 -2 19 1 4 3 -2 6 -13 5 -11 0 -14 -3 -6 -6z"/>
<path d="M8005 10830 c-10 -11 -33 -22 -51 -26 -19 -3 -37 -11 -41 -17 -4 -7
2 -8 18 -3 13 5 49 14 79 21 30 7 46 14 35 15 -11 1 -14 4 -7 7 6 2 12 9 12
14 0 16 -26 10 -45 -11z"/>
<path d="M6780 10440 c-6 -11 -8 -20 -6 -20 3 0 10 9 16 20 6 11 8 20 6 20 -3
0 -10 -9 -16 -20z"/>
<path d="M7904 10369 c-27 -21 -40 -27 -43 -17 -4 14 -21 28 -34 28 -4 0 -5
-11 -1 -25 5 -21 3 -25 -17 -25 l-23 0 21 -15 c16 -11 27 -13 45 -5 38 18 74
40 64 40 -6 0 0 9 12 20 20 19 27 30 18 30 -2 0 -21 -14 -42 -31z"/>
<path d="M8790 10299 c-152 -13 -164 -18 -35 -12 66 3 127 9 135 14 8 4 11 8
5 7 -5 0 -53 -4 -105 -9z"/>
<path d="M8118 10256 c-27 -12 -27 -12 -8 -29 25 -22 34 -22 26 0 -4 9 -1 20
6 24 21 14 4 17 -24 5z"/>
<path d="M8873 10263 c9 -2 25 -2 35 0 9 3 1 5 -18 5 -19 0 -27 -2 -17 -5z"/>
<path d="M6620 10200 c-6 -11 -8 -20 -6 -20 3 0 10 9 16 20 6 11 8 20 6 20 -3
0 -10 -9 -16 -20z"/>
<path d="M8376 10185 c-37 -40 -49 -77 -38 -116 9 -30 10 -31 11 -9 1 27 6 29
91 34 52 2 63 16 29 33 -23 12 -23 13 -3 13 28 0 37 34 15 54 -27 25 -78 20
-105 -9z"/>
<path d="M6555 10109 c-4 -6 -5 -12 -2 -15 2 -3 7 2 10 11 7 17 1 20 -8 4z"/>
<path d="M8352 9988 c6 -16 36 -34 44 -26 3 4 4 14 1 23 -7 17 -51 21 -45 3z"/>
<path d="M8693 9931 c-39 -3 -75 -10 -79 -14 -10 -10 223 3 251 14 23 9 -61 9
-172 0z"/>
<path d="M8382 9905 c-62 -6 -115 -15 -119 -18 -9 -10 15 -9 155 5 67 6 122
15 122 20 0 10 -11 9 -158 -7z"/>
<path d="M6918 9893 c7 -3 16 -2 19 1 4 3 -2 6 -13 5 -11 0 -14 -3 -6 -6z"/>
<path d="M7780 9885 c7 -8 21 -15 30 -15 12 0 21 -10 25 -30 4 -16 13 -30 21
-30 20 0 18 7 -17 51 -18 22 -39 39 -51 39 -17 0 -18 -3 -8 -15z"/>
<path d="M8790 9859 c-167 -14 -523 -50 -580 -58 l-55 -8 35 -15 c41 -19 58
-18 435 16 226 21 282 29 292 43 15 19 8 34 -15 32 -9 -1 -60 -5 -112 -10z"/>
<path d="M6901 9811 c-6 -11 -7 -22 -2 -25 5 -3 11 4 14 16 8 30 1 35 -12 9z"/>
<path d="M7610 9684 c0 -7 27 -34 33 -34 3 0 3 9 0 20 -5 17 -33 30 -33 14z"/>
<path d="M7538 9623 c-24 -6 -23 -13 6 -45 27 -32 40 -36 32 -10 -5 16 -1 18
26 15 30 -3 31 -2 9 7 -14 6 -21 16 -17 25 5 15 -17 18 -56 8z"/>
<path d="M10402 9305 c0 -16 2 -22 5 -12 2 9 2 23 0 30 -3 6 -5 -1 -5 -18z"/>
<path d="M10326 8795 c8 -37 14 -45 14 -19 0 10 -5 26 -10 34 -8 11 -9 7 -4
-15z"/>
<path d="M10322 8715 c0 -16 2 -22 5 -12 2 9 2 23 0 30 -3 6 -5 -1 -5 -18z"/>
<path d="M11468 8714 c-4 -3 -33 -9 -65 -13 l-58 -6 -6 -60 c-4 -33 -9 -91
-13 -130 -3 -38 -10 -106 -15 -150 -6 -44 -13 -116 -16 -160 -4 -44 -8 -89
-10 -100 -3 -11 -7 -49 -10 -85 -9 -113 -35 -372 -45 -460 -5 -47 -11 -110
-14 -140 -9 -92 -45 -437 -61 -575 -8 -71 -19 -186 -25 -255 -6 -69 -18 -177
-26 -240 -9 -63 -16 -166 -17 -228 -2 -102 -4 -113 -20 -108 -12 3 -19 -3 -23
-22 -3 -15 -8 -34 -11 -42 -2 -8 -7 -51 -10 -94 -4 -71 -3 -78 10 -67 12 9 21
10 36 2 11 -6 29 -11 41 -11 13 0 18 -4 14 -11 -4 -7 2 -9 17 -7 21 3 24 8 21
39 -2 20 2 74 8 119 6 46 20 162 30 259 10 97 26 235 35 306 18 154 54 488 96
890 39 380 104 968 130 1173 20 158 21 191 7 176z m-338 -2884 c0 -5 -5 -10
-11 -10 -5 0 -7 5 -4 10 3 6 8 10 11 10 2 0 4 -4 4 -10z"/>
<path d="M11513 8630 c0 -36 2 -50 4 -32 2 17 2 47 0 65 -2 17 -4 3 -4 -33z"/>
<path d="M11491 8424 c0 -11 3 -14 6 -6 3 7 2 16 -1 19 -3 4 -6 -2 -5 -13z"/>
<path d="M10250 7669 c0 -5 5 -7 10 -4 6 3 10 8 10 11 0 2 -4 4 -10 4 -5 0
-10 -5 -10 -11z"/>
<path d="M3701 7504 c0 -11 3 -14 6 -6 3 7 2 16 -1 19 -3 4 -6 -2 -5 -13z"/>
<path d="M11342 7070 c0 -19 2 -27 5 -17 2 9 2 25 0 35 -3 9 -5 1 -5 -18z"/>
<path d="M11330 6995 c0 -19 -7 -61 -15 -93 -8 -31 -24 -169 -35 -305 -11
-137 -22 -253 -25 -258 -4 -5 -2 -16 3 -25 6 -11 11 11 16 72 4 49 11 114 16
144 5 30 17 129 25 220 8 91 19 191 23 223 5 31 5 57 0 57 -4 0 -8 -16 -8 -35z"/>
<path d="M11498 6983 c7 -3 16 -2 19 1 4 3 -2 6 -13 5 -11 0 -14 -3 -6 -6z"/>
<path d="M11501 6773 c0 -5 4 -17 9 -28 8 -18 9 -17 9 8 1 15 -3 27 -9 27 -5
0 -10 -3 -9 -7z"/>
<path d="M11513 6680 c0 -25 2 -35 4 -22 2 12 2 32 0 45 -2 12 -4 2 -4 -23z"/>
<path d="M11494 6554 c3 -9 6 -18 6 -20 0 -2 5 -4 10 -4 6 0 10 9 10 20 0 12
-7 20 -16 20 -11 0 -14 -5 -10 -16z"/>
<path d="M10338 6523 c7 -3 16 -2 19 1 4 3 -2 6 -13 5 -11 0 -14 -3 -6 -6z"/>
<path d="M11490 6499 c-17 -5 -19 -7 -7 -8 16 -1 18 -7 13 -53 -9 -77 -44
-450 -52 -538 -5 -63 -21 -152 -40 -221 -3 -12 12 -26 51 -48 30 -17 57 -31
60 -31 3 0 5 11 5 25 0 18 -11 32 -40 50 -24 15 -40 33 -40 45 0 11 5 17 13
15 9 -4 12 11 12 57 0 35 13 187 28 339 16 152 27 299 25 326 -3 47 -4 49 -28
42z"/>
<path d="M11440 6455 c0 -8 5 -15 10 -15 6 0 10 7 10 15 0 8 -4 15 -10 15 -5
0 -10 -7 -10 -15z"/>
<path d="M11252 6250 c0 -19 2 -27 5 -17 2 9 2 25 0 35 -3 9 -5 1 -5 -18z"/>
<path d="M10427 6105 c12 -8 37 -18 55 -21 25 -4 29 -3 18 5 -8 6 -25 11 -37
11 -12 0 -25 5 -28 10 -3 6 -11 10 -18 10 -6 0 -2 -7 10 -15z"/>
<path d="M10558 6064 c13 -9 26 -13 30 -9 8 8 -17 25 -38 25 -9 0 -6 -6 8 -16z"/>
<path d="M10190 5935 c-16 -9 -19 -14 -9 -15 8 0 24 7 35 15 24 18 7 19 -26 0z"/>
<path d="M10272 5924 c15 -8 63 -28 105 -45 43 -16 111 -46 152 -65 59 -28 79
-34 95 -25 21 9 21 10 -2 10 -13 1 -42 10 -65 20 -40 18 -76 33 -197 81 -30
12 -59 26 -64 31 -6 5 -19 9 -30 9 -18 -1 -17 -3 6 -16z"/>
<path d="M10988 5923 c7 -3 16 -2 19 1 4 3 -2 6 -13 5 -11 0 -14 -3 -6 -6z"/>
<path d="M10920 5890 c-12 -8 -11 -10 7 -10 12 0 25 5 28 10 8 13 -15 13 -35
0z"/>
<path d="M11382 5805 c0 -16 2 -22 5 -12 2 9 2 23 0 30 -3 6 -5 -1 -5 -18z"/>
<path d="M11365 5733 c-4 -16 -8 -36 -10 -45 -2 -11 3 -18 11 -18 10 0 14 13
14 45 0 51 -7 58 -15 18z"/>
<path d="M11038 5733 c7 -3 16 -2 19 1 4 3 -2 6 -13 5 -11 0 -14 -3 -6 -6z"/>
<path d="M3565 5699 c-9 -14 0 -22 18 -17 13 2 13 5 2 15 -10 9 -16 9 -20 2z"/>
<path d="M11353 5595 c-29 -13 -53 -26 -53 -28 0 -3 17 -1 37 4 21 4 39 6 41
4 6 -5 -56 -30 -187 -75 -63 -22 -117 -43 -120 -46 -3 -4 3 -4 14 0 11 4 36
10 55 13 19 4 37 9 40 13 3 4 28 10 55 14 l50 6 -30 -17 c-17 -9 -25 -18 -17
-20 6 -3 12 -11 12 -19 0 -8 5 -14 11 -14 26 0 -6 -20 -34 -21 -27 -2 -28 -2
-7 -6 14 -3 33 -12 43 -20 15 -15 17 -15 17 1 0 10 6 16 13 14 23 -8 12 -33
-20 -43 -40 -11 -42 -22 -7 -35 31 -12 23 -30 -14 -30 -24 -1 -25 -2 -9 -11
14 -8 16 -14 6 -25 -9 -11 -8 -14 4 -14 9 0 28 -5 44 -11 26 -10 27 -12 8 -19
-19 -8 -19 -9 2 -9 12 -1 25 4 28 9 3 6 14 10 23 10 16 -1 16 -2 0 -14 -22
-17 -22 -25 1 -55 15 -20 16 -29 7 -52 -8 -24 -7 -35 8 -60 10 -17 16 -33 13
-35 -3 -3 -8 4 -12 15 -8 27 -39 27 -65 1 -22 -22 -26 -40 -10 -40 6 0 10 -7
10 -16 0 -12 6 -15 21 -11 12 3 28 0 35 -8 22 -21 17 -27 -16 -20 -44 10 -37
-11 8 -22 20 -5 36 -15 35 -21 -2 -7 4 -12 13 -12 8 0 13 4 9 9 -9 16 15 24
30 11 19 -16 19 -30 0 -30 -10 0 -15 -10 -15 -28 0 -35 49 -86 73 -76 15 5 16
46 17 415 0 380 -2 410 -18 415 -9 3 -29 12 -44 20 -34 18 -43 17 -105 -11z
m7 -335 c0 -5 -9 -10 -21 -10 -11 0 -17 5 -14 10 3 6 13 10 21 10 8 0 14 -4
14 -10z m123 -44 c9 -23 -17 -38 -44 -27 l-24 10 27 0 c20 1 26 5 22 16 -4 8
-2 15 4 15 5 0 12 -6 15 -14z m-135 -216 c-7 -11 -16 -20 -20 -20 -13 0 -9 28
5 33 23 10 27 7 15 -13z m66 -35 c3 -9 0 -15 -9 -15 -9 0 -12 6 -9 15 4 8 7
15 9 15 2 0 5 -7 9 -15z m76 -55 c0 -5 -4 -10 -10 -10 -5 0 -10 5 -10 10 0 6
5 10 10 10 6 0 10 -4 10 -10z m13 -115 c-6 -17 -25 -15 -31 3 -2 7 5 12 17 12
14 0 19 -5 14 -15z"/>
<path d="M10538 5583 c7 -3 16 -2 19 1 4 3 -2 6 -13 5 -11 0 -14 -3 -6 -6z"/>
<path d="M10385 5540 c-13 -6 -15 -9 -5 -9 8 0 22 4 30 9 18 12 2 12 -25 0z"/>
<path d="M10320 5520 c-18 -12 -2 -12 25 0 13 6 15 9 5 9 -8 0 -22 -4 -30 -9z"/>
<path d="M11324 5086 c-8 -22 3 -33 18 -18 9 9 9 15 0 24 -9 9 -13 7 -18 -6z"/>
<path d="M11260 5047 c0 -8 7 -18 16 -21 11 -4 14 -1 12 11 -4 21 -28 30 -28
10z"/>
<path d="M11240 4961 c0 -7 44 -31 55 -31 17 0 0 17 -25 27 -16 6 -30 8 -30 4z"/>
<path d="M2962 4818 c3 -7 15 -15 28 -16 21 -3 22 -2 11 12 -16 19 -44 21 -39
4z"/>
<path d="M11348 4775 c-2 -6 0 -20 7 -32 9 -17 14 -20 24 -10 9 9 16 9 32 -1
25 -16 37 -8 19 13 -7 8 -25 15 -40 15 -16 0 -30 5 -32 12 -3 7 -7 8 -10 3z"/>
<path d="M10510 4750 c8 -5 20 -10 25 -10 6 0 3 5 -5 10 -8 5 -19 10 -25 10
-5 0 -3 -5 5 -10z"/>
<path d="M10580 4715 c0 -2 23 -16 50 -30 28 -14 50 -23 50 -20 0 2 -22 16
-50 30 -27 14 -50 23 -50 20z"/>
<path d="M11400 4710 c0 -5 7 -10 16 -10 8 0 12 5 9 10 -3 6 -10 10 -16 10 -5
0 -9 -4 -9 -10z"/>
<path d="M11443 4699 c2 -25 23 -51 56 -69 19 -9 21 -8 21 15 0 16 -6 25 -15
25 -8 0 -15 5 -15 10 0 6 7 10 15 10 8 0 15 5 15 10 0 6 -8 10 -17 10 -10 0
-28 3 -40 6 -18 5 -22 2 -20 -17z"/>
<path d="M11390 4645 c0 -9 9 -15 25 -15 14 0 25 -5 25 -10 0 -6 -11 -8 -25
-4 -15 4 -25 2 -25 -5 0 -6 17 -11 40 -11 33 0 40 3 40 20 0 14 -7 20 -21 20
-11 0 -17 5 -14 10 4 6 -5 10 -19 10 -16 0 -26 -6 -26 -15z"/>
<path d="M10715 4642 c6 -6 84 -51 175 -100 91 -49 218 -119 282 -155 64 -36
146 -82 182 -101 36 -20 84 -47 106 -61 41 -26 60 -31 60 -16 0 5 -21 19 -47
33 -27 14 -122 65 -213 115 -91 49 -228 123 -305 163 -77 40 -165 86 -195 103
-30 16 -50 25 -45 19z"/>
<path d="M11347 4571 c-4 -17 -3 -21 5 -13 5 5 8 16 6 23 -3 8 -7 3 -11 -10z"/>
<path d="M11498 4583 c7 -3 16 -2 19 1 4 3 -2 6 -13 5 -11 0 -14 -3 -6 -6z"/>
<path d="M11427 4569 c-50 -8 -54 -15 -15 -23 l33 -7 -25 -14 -25 -13 28 -11
c36 -14 44 -14 49 0 3 9 10 9 26 0 20 -11 22 -9 22 14 0 14 -4 25 -8 25 -5 0
-17 8 -28 18 -14 13 -28 16 -57 11z"/>
<path d="M11474 4465 c22 -17 46 -20 46 -6 0 5 -10 11 -22 15 -37 9 -44 6 -24
-9z"/>
<path d="M11440 4440 c0 -6 5 -10 10 -10 6 0 19 -9 30 -20 25 -25 45 -27 32
-4 -11 19 -72 48 -72 34z"/>
<path d="M11390 4374 c0 -10 44 -43 60 -45 8 0 5 -4 -8 -7 -20 -6 -18 -9 23
-31 47 -25 67 -23 45 4 -10 12 -10 15 1 16 8 0 -8 11 -36 25 -27 13 -54 29
-59 34 -11 11 -26 13 -26 4z"/>
<path d="M11338 4213 c7 -3 16 -2 19 1 4 3 -2 6 -13 5 -11 0 -14 -3 -6 -6z"/>
<path d="M11480 4121 c0 -6 4 -12 9 -15 5 -3 9 -17 9 -31 0 -14 -4 -25 -9 -25
-17 0 -9 -18 11 -23 18 -5 20 0 20 37 0 39 -13 66 -32 66 -4 0 -8 -4 -8 -9z"/>
<path d="M11380 4011 c0 -24 19 -32 43 -19 18 9 18 10 0 23 -26 20 -43 18 -43
-4z"/>
<path d="M11485 3984 c-20 -21 -29 -24 -58 -19 -20 4 -43 2 -54 -4 -15 -9 -11
-10 23 -11 22 0 48 -6 58 -13 16 -12 15 -15 -12 -43 -16 -17 -36 -34 -46 -37
-17 -7 -22 -27 -6 -27 5 0 20 11 34 25 17 17 36 25 60 25 l35 0 0 65 c-1 36
-3 65 -5 65 -3 0 -16 -12 -29 -26z"/>
<path d="M11310 3860 c0 -5 7 -7 15 -4 8 4 15 8 15 10 0 2 -7 4 -15 4 -8 0
-15 -4 -15 -10z"/>
<path d="M11353 3683 c4 -3 2 -12 -5 -20 -8 -10 -8 -17 0 -25 9 -9 12 -8 12 6
0 13 5 16 17 12 15 -6 15 -4 -2 14 -10 11 -20 20 -23 20 -3 0 -2 -3 1 -7z"/>
<path d="M11358 3603 c7 -3 16 -2 19 1 4 3 -2 6 -13 5 -11 0 -14 -3 -6 -6z"/>
<path d="M11375 3570 c-3 -5 1 -10 9 -10 9 0 16 5 16 10 0 6 -4 10 -9 10 -6 0
-13 -4 -16 -10z"/>
<path d="M11137 3490 c-6 -23 5 -33 27 -24 21 8 21 30 0 38 -21 8 -21 8 -27
-14z"/>
<path d="M11111 3464 c0 -11 3 -14 6 -6 3 7 2 16 -1 19 -3 4 -6 -2 -5 -13z"/>
<path d="M2561 3314 c0 -11 3 -14 6 -6 3 7 2 16 -1 19 -3 4 -6 -2 -5 -13z"/>
<path d="M2631 3314 c0 -11 3 -14 6 -6 3 7 2 16 -1 19 -3 4 -6 -2 -5 -13z"/>
<path d="M2585 3290 c-3 -5 3 -10 15 -10 12 0 18 5 15 10 -3 6 -10 10 -15 10
-5 0 -12 -4 -15 -10z"/>
<path d="M10060 3290 c0 -5 5 -10 10 -10 6 0 10 5 10 10 0 6 -4 10 -10 10 -5
0 -10 -4 -10 -10z"/>
<path d="M10860 3191 c0 -6 5 -13 10 -16 6 -3 10 1 10 9 0 9 -4 16 -10 16 -5
0 -10 -4 -10 -9z"/>
<path d="M10717 3113 c-4 -3 -7 -11 -7 -17 0 -6 5 -5 12 2 6 6 9 14 7 17 -3 3
-9 2 -12 -2z"/>
<path d="M10750 3101 c0 -10 7 -22 16 -25 12 -5 15 -2 10 10 -3 8 -6 20 -6 25
0 5 -4 9 -10 9 -5 0 -10 -9 -10 -19z"/>
<path d="M10790 3107 c0 -7 14 -29 30 -47 22 -25 30 -29 30 -16 0 9 7 19 15
22 8 4 15 18 15 33 -1 22 -2 24 -11 9 -12 -22 -48 -24 -55 -3 -7 19 -24 20
-24 2z"/>
<path d="M10670 3070 c0 -5 5 -10 10 -10 6 0 10 5 10 10 0 6 -4 10 -10 10 -5
0 -10 -4 -10 -10z"/>
<path d="M10232 3030 c0 -14 2 -19 5 -12 2 6 2 18 0 25 -3 6 -5 1 -5 -13z"/>
<path d="M10530 2950 c0 -5 4 -10 9 -10 6 0 13 5 16 10 3 6 -1 10 -9 10 -9 0
-16 -4 -16 -10z"/>
<path d="M10757 2944 c-8 -8 1 -24 14 -24 5 0 9 7 9 15 0 15 -12 20 -23 9z"/>
<path d="M385 2061 c-3 -6 -2 -11 4 -11 10 0 27 -39 23 -53 -1 -5 2 -6 8 -2 6
4 4 17 -6 38 -21 41 -21 40 -29 28z"/>
</g>
</svg>
