<?xml version="1.0" encoding="utf-8"?>
<!-- Generator: Adobe Illustrator 27.0.0, SVG Export Plug-In . SVG Version: 6.00 Build 0)  -->
<svg version="1.1" id="Laag_1" xmlns="http://www.w3.org/2000/svg" xmlns:xlink="http://www.w3.org/1999/xlink" x="0px" y="0px"
	 viewBox="0 0 1366 768" style="enable-background:new 0 0 1366 768;" xml:space="preserve">
<style type="text/css">
	.st0{fill:none;stroke:#000000;stroke-width:2;stroke-miterlimit:10;}
</style>
<path class="st0" d="M680,393.5h19.36l28,28h-85.99l28.79-28.36 M670,393.5h-46.5v7H662 M663,400.5h-1 M672,400.5 M672.21,400.88
	l-15.62,15.62h54.43l-16-16H673 M672.59,400.5l-0.38,0.38 M672.75,400.33l-0.17,0.17 M697.59,375.5l-24.83,24.83 M697.59,375.5
	 M704,368l21.59-20.5h-9.09l-0.19,0.19 M711,353h1h-55l16,15h31 M698,375.5l46-0.5v-7h-40 M716.5,347.5h-77l28.27,28H698
	 M716.89,347.11 M711.89,352.11 M696.68,367.78l16-15 M670.17,393.14l17.91-17.64"/>
</svg>
